<?xml version="1.0" encoding="utf-8"?>
<!-- Generator: Adobe Illustrator 16.0.0, SVG Export Plug-In . SVG Version: 6.00 Build 0)  -->
<!DOCTYPE svg PUBLIC "-//W3C//DTD SVG 1.1//EN" "http://www.w3.org/Graphics/SVG/1.1/DTD/svg11.dtd">
<svg version="1.1" id="Layer_1" xmlns="http://www.w3.org/2000/svg" xmlns:xlink="http://www.w3.org/1999/xlink" x="0px" y="0px"
	 width="43.479px" height="25px" viewBox="0 0 43.479 25" enable-background="new 0 0 43.479 25" xml:space="preserve">
<g>
	<g>
		<rect x="20.576" y="18.025" fill="#EC1C24" width="2.327" height="2.324"/>
		<rect x="22.903" y="20.351" fill="#838687" width="2.322" height="2.325"/>
		<rect x="25.225" y="18.026" fill="#838687" width="2.326" height="2.324"/>
		<rect x="22.903" y="15.699" fill="#838687" width="2.322" height="2.326"/>
		<rect x="20.576" y="13.375" fill="#838687" width="2.327" height="2.324"/>
		<rect x="18.25" y="15.7" fill="#838687" width="2.326" height="2.325"/>
		<rect x="15.926" y="18.025" fill="#838687" width="2.324" height="2.324"/>
		<rect x="18.25" y="20.35" fill="#838687" width="2.326" height="2.325"/>
		<rect x="20.576" y="22.676" fill="#838687" width="2.327" height="2.324"/>
	</g>
	<g>
		<rect x="8.951" y="11.625" fill="#EC1C24" width="2.324" height="8.95"/>
		<rect x="11.275" y="9.3" fill="#EC1C24" width="2.326" height="8.951"/>
		<rect x="13.602" y="6.975" fill="#EC1C24" width="2.324" height="6.686"/>
		<rect x="15.927" y="4.65" fill="#EC1C24" width="2.324" height="6.684"/>
		<rect x="18.25" y="2.324" fill="#EC1C24" width="2.326" height="4.742"/>
		<rect x="0.001" y="9.301" fill="#EC1C24" width="8.951" height="2.324"/>
		<rect x="3.303" y="14.58" fill="#EC1C24" width="2.326" height="2.325"/>
		<rect x="18.25" fill="#838687" width="2.326" height="2.324"/>
		<rect x="6.627" y="11.625" fill="#838687" width="2.324" height="2.324"/>
		<rect x="2.324" y="6.974" fill="#EC1C24" width="8.951" height="2.325"/>
		<rect x="6.918" y="4.65" fill="#EC1C24" width="6.684" height="2.324"/>
		<rect x="9.242" y="2.324" fill="#EC1C24" width="6.684" height="2.326"/>
		<rect x="13.51" fill="#EC1C24" width="4.74" height="2.324"/>
	</g>
	<g>
		<rect x="32.202" y="11.625" fill="#EC1C24" width="2.324" height="8.95"/>
		<rect x="29.875" y="9.3" fill="#EC1C24" width="2.326" height="8.951"/>
		<rect x="27.551" y="6.975" fill="#EC1C24" width="2.324" height="6.686"/>
		<rect x="25.225" y="4.65" fill="#EC1C24" width="2.326" height="6.685"/>
		<rect x="22.903" y="2.324" fill="#EC1C24" width="2.322" height="4.742"/>
		<rect x="34.526" y="9.301" fill="#EC1C24" width="8.953" height="2.324"/>
		<rect x="37.848" y="14.581" fill="#EC1C24" width="2.326" height="2.324"/>
		<rect x="22.903" fill="#838687" width="2.322" height="2.324"/>
		<rect x="34.526" y="11.625" fill="#838687" width="2.324" height="2.324"/>
		<rect x="32.202" y="6.975" fill="#EC1C24" width="8.951" height="2.325"/>
		<rect x="29.875" y="4.65" fill="#EC1C24" width="6.686" height="2.324"/>
		<rect x="27.551" y="2.324" fill="#EC1C24" width="6.684" height="2.326"/>
		<rect x="25.225" fill="#EC1C24" width="4.742" height="2.324"/>
	</g>
	<rect x="20.576" y="2.324" fill="#838687" width="2.327" height="2.326"/>
</g>
</svg>
