<?xml version="1.0" encoding="utf-8"?>
<!-- Generator: Adobe Illustrator 16.0.0, SVG Export Plug-In . SVG Version: 6.00 Build 0)  -->
<!DOCTYPE svg PUBLIC "-//W3C//DTD SVG 1.1//EN" "http://www.w3.org/Graphics/SVG/1.1/DTD/svg11.dtd">
<svg version="1.1" id="Layer_1" xmlns="http://www.w3.org/2000/svg" xmlns:xlink="http://www.w3.org/1999/xlink" x="0px" y="0px"
	 width="25.226px" height="43.478px" viewBox="18.253 -9.239 25.226 43.478" enable-background="new 18.253 -9.239 25.226 43.478"
	 xml:space="preserve">
<g>
	<g>
		<rect x="22.904" y="11.336" fill="#EC1C24" width="2.324" height="2.327"/>
		<rect x="20.577" y="13.663" fill="#838687" width="2.325" height="2.322"/>
		<rect x="22.904" y="15.985" fill="#838687" width="2.324" height="2.326"/>
		<rect x="25.228" y="13.663" fill="#838687" width="2.326" height="2.322"/>
		<rect x="27.554" y="11.336" fill="#838687" width="2.324" height="2.327"/>
		<rect x="25.228" y="9.01" fill="#838687" width="2.324" height="2.326"/>
		<rect x="22.904" y="6.686" fill="#838687" width="2.324" height="2.324"/>
		<rect x="20.578" y="9.01" fill="#838687" width="2.326" height="2.326"/>
		<rect x="18.253" y="11.336" fill="#838687" width="2.324" height="2.327"/>
	</g>
	<g>
		<rect x="22.677" y="-0.289" fill="#EC1C24" width="8.95" height="2.323"/>
		<rect x="25.001" y="2.035" fill="#EC1C24" width="8.952" height="2.326"/>
		<rect x="29.591" y="4.362" fill="#EC1C24" width="6.687" height="2.324"/>
		<rect x="31.918" y="6.687" fill="#EC1C24" width="6.685" height="2.324"/>
		<rect x="36.187" y="9.01" fill="#EC1C24" width="4.741" height="2.326"/>
		<rect x="31.627" y="-9.239" fill="#EC1C24" width="2.324" height="8.951"/>
		<rect x="26.347" y="-5.937" fill="#EC1C24" width="2.326" height="2.326"/>
		<rect x="40.928" y="9.01" fill="#838687" width="2.324" height="2.326"/>
		<rect x="29.304" y="-2.613" fill="#838687" width="2.323" height="2.324"/>
		<rect x="33.953" y="-6.916" fill="#EC1C24" width="2.325" height="8.95"/>
		<rect x="36.279" y="-2.322" fill="#EC1C24" width="2.324" height="6.684"/>
		<rect x="38.603" y="0.002" fill="#EC1C24" width="2.325" height="6.684"/>
		<rect x="40.928" y="4.27" fill="#EC1C24" width="2.324" height="4.74"/>
	</g>
	<g>
		<rect x="22.677" y="22.963" fill="#EC1C24" width="8.95" height="2.323"/>
		<rect x="25.001" y="20.636" fill="#EC1C24" width="8.952" height="2.326"/>
		<rect x="29.591" y="18.312" fill="#EC1C24" width="6.687" height="2.324"/>
		<rect x="31.918" y="15.985" fill="#EC1C24" width="6.685" height="2.326"/>
		<rect x="36.187" y="13.663" fill="#EC1C24" width="4.741" height="2.322"/>
		<rect x="31.627" y="25.286" fill="#EC1C24" width="2.324" height="8.953"/>
		<rect x="26.347" y="28.608" fill="#EC1C24" width="2.324" height="2.326"/>
		<rect x="40.928" y="13.663" fill="#838687" width="2.324" height="2.322"/>
		<rect x="29.304" y="25.286" fill="#838687" width="2.323" height="2.324"/>
		<rect x="33.953" y="22.963" fill="#EC1C24" width="2.324" height="8.95"/>
		<rect x="36.279" y="20.636" fill="#EC1C24" width="2.324" height="6.686"/>
		<rect x="38.603" y="18.312" fill="#EC1C24" width="2.325" height="6.684"/>
		<rect x="40.928" y="15.985" fill="#EC1C24" width="2.324" height="4.742"/>
	</g>
	<rect x="38.603" y="11.336" fill="#838687" width="2.325" height="2.327"/>
</g>
</svg>
