<?xml version="1.0" encoding="utf-8"?>
<!-- Generator: Adobe Illustrator 16.0.0, SVG Export Plug-In . SVG Version: 6.00 Build 0)  -->
<!DOCTYPE svg PUBLIC "-//W3C//DTD SVG 1.1//EN" "http://www.w3.org/Graphics/SVG/1.1/DTD/svg11.dtd">
<svg version="1.1" id="Layer_1" xmlns="http://www.w3.org/2000/svg" xmlns:xlink="http://www.w3.org/1999/xlink" x="0px" y="0px"
	 width="43.479px" height="25px" viewBox="0 0 43.479 25" enable-background="new 0 0 43.479 25" xml:space="preserve">
<g>
	<g>
		<rect x="20.577" y="4.65" fill="#EC1C24" width="2.326" height="2.324"/>
		<rect x="18.255" y="2.324" fill="#838687" width="2.322" height="2.324"/>
		<rect x="15.929" y="4.65" fill="#838687" width="2.326" height="2.324"/>
		<rect x="18.255" y="6.975" fill="#838687" width="2.322" height="2.326"/>
		<rect x="20.577" y="9.301" fill="#838687" width="2.326" height="2.324"/>
		<rect x="22.904" y="6.975" fill="#838687" width="2.326" height="2.325"/>
		<rect x="25.23" y="4.65" fill="#838687" width="2.324" height="2.324"/>
		<rect x="22.904" y="2.325" fill="#838687" width="2.326" height="2.325"/>
		<rect x="20.577" fill="#838687" width="2.326" height="2.324"/>
	</g>
	<g>
		<rect x="32.205" y="4.425" fill="#EC1C24" width="2.323" height="8.95"/>
		<rect x="29.879" y="6.749" fill="#EC1C24" width="2.326" height="8.951"/>
		<rect x="27.554" y="11.339" fill="#EC1C24" width="2.324" height="6.686"/>
		<rect x="25.229" y="13.666" fill="#EC1C24" width="2.324" height="6.684"/>
		<rect x="22.904" y="17.934" fill="#EC1C24" width="2.326" height="4.742"/>
		<rect x="34.528" y="13.375" fill="#EC1C24" width="8.951" height="2.324"/>
		<rect x="37.851" y="8.095" fill="#EC1C24" width="2.326" height="2.325"/>
		<rect x="22.904" y="22.676" fill="#838687" width="2.326" height="2.324"/>
		<rect x="34.529" y="11.051" fill="#838687" width="2.324" height="2.324"/>
		<rect x="32.205" y="15.701" fill="#EC1C24" width="8.95" height="2.324"/>
		<rect x="29.878" y="18.025" fill="#EC1C24" width="6.684" height="2.324"/>
		<rect x="27.554" y="20.35" fill="#EC1C24" width="6.684" height="2.326"/>
		<rect x="25.23" y="22.676" fill="#EC1C24" width="4.74" height="2.324"/>
	</g>
	<g>
		<rect x="8.954" y="4.425" fill="#EC1C24" width="2.323" height="8.95"/>
		<rect x="11.279" y="6.749" fill="#EC1C24" width="2.326" height="8.951"/>
		<rect x="13.605" y="11.339" fill="#EC1C24" width="2.324" height="6.686"/>
		<rect x="15.929" y="13.665" fill="#EC1C24" width="2.326" height="6.685"/>
		<rect x="18.255" y="17.934" fill="#EC1C24" width="2.322" height="4.742"/>
		<rect x="0.001" y="13.375" fill="#EC1C24" width="8.953" height="2.324"/>
		<rect x="3.306" y="8.095" fill="#EC1C24" width="2.326" height="2.324"/>
		<rect x="18.255" y="22.676" fill="#838687" width="2.322" height="2.324"/>
		<rect x="6.63" y="11.051" fill="#838687" width="2.324" height="2.324"/>
		<rect x="2.327" y="15.7" fill="#EC1C24" width="8.95" height="2.324"/>
		<rect x="6.919" y="18.025" fill="#EC1C24" width="6.686" height="2.324"/>
		<rect x="9.245" y="20.35" fill="#EC1C24" width="6.684" height="2.326"/>
		<rect x="13.513" y="22.676" fill="#EC1C24" width="4.742" height="2.324"/>
	</g>
	<rect x="20.577" y="20.35" fill="#838687" width="2.326" height="2.326"/>
</g>
</svg>
