<?xml version="1.0" encoding="utf-8"?>
<!-- Generator: Adobe Illustrator 16.0.0, SVG Export Plug-In . SVG Version: 6.00 Build 0)  -->
<!DOCTYPE svg PUBLIC "-//W3C//DTD SVG 1.1//EN" "http://www.w3.org/Graphics/SVG/1.1/DTD/svg11.dtd">
<svg version="1.1" id="Layer_1" xmlns="http://www.w3.org/2000/svg" xmlns:xlink="http://www.w3.org/1999/xlink" x="0px" y="0px"
	 width="25.226px" height="43.478px" viewBox="18.253 -9.239 25.226 43.478" enable-background="new 18.253 -9.239 25.226 43.478"
	 xml:space="preserve">
<g>
	<g>
		<rect x="36.28" y="11.337" fill="#EC1C24" width="2.324" height="2.326"/>
		<rect x="38.606" y="9.015" fill="#838687" width="2.324" height="2.322"/>
		<rect x="36.28" y="6.688" fill="#838687" width="2.324" height="2.326"/>
		<rect x="33.953" y="9.015" fill="#838687" width="2.326" height="2.322"/>
		<rect x="31.629" y="11.337" fill="#838687" width="2.324" height="2.326"/>
		<rect x="33.955" y="13.663" fill="#838687" width="2.324" height="2.326"/>
		<rect x="36.28" y="15.989" fill="#838687" width="2.324" height="2.324"/>
		<rect x="38.604" y="13.663" fill="#838687" width="2.325" height="2.326"/>
		<rect x="40.93" y="11.337" fill="#838687" width="2.324" height="2.326"/>
	</g>
	<g>
		<rect x="29.88" y="22.965" fill="#EC1C24" width="8.95" height="2.323"/>
		<rect x="27.554" y="20.639" fill="#EC1C24" width="8.952" height="2.326"/>
		<rect x="25.23" y="18.313" fill="#EC1C24" width="6.687" height="2.324"/>
		<rect x="22.905" y="15.988" fill="#EC1C24" width="6.685" height="2.324"/>
		<rect x="20.579" y="13.663" fill="#EC1C24" width="4.742" height="2.326"/>
		<rect x="27.556" y="25.287" fill="#EC1C24" width="2.324" height="8.951"/>
		<rect x="32.834" y="28.61" fill="#EC1C24" width="2.326" height="2.326"/>
		<rect x="18.255" y="13.663" fill="#838687" width="2.324" height="2.326"/>
		<rect x="29.88" y="25.288" fill="#838687" width="2.323" height="2.324"/>
		<rect x="25.229" y="22.965" fill="#EC1C24" width="2.325" height="8.95"/>
		<rect x="22.905" y="20.638" fill="#EC1C24" width="2.324" height="6.684"/>
		<rect x="20.579" y="18.313" fill="#EC1C24" width="2.326" height="6.684"/>
		<rect x="18.255" y="15.989" fill="#EC1C24" width="2.324" height="4.74"/>
	</g>
	<g>
		<rect x="29.88" y="-0.286" fill="#EC1C24" width="8.95" height="2.323"/>
		<rect x="27.554" y="2.038" fill="#EC1C24" width="8.952" height="2.326"/>
		<rect x="25.23" y="4.364" fill="#EC1C24" width="6.687" height="2.324"/>
		<rect x="22.905" y="6.688" fill="#EC1C24" width="6.685" height="2.326"/>
		<rect x="20.579" y="9.015" fill="#EC1C24" width="4.742" height="2.322"/>
		<rect x="27.556" y="-9.239" fill="#EC1C24" width="2.324" height="8.953"/>
		<rect x="32.836" y="-5.935" fill="#EC1C24" width="2.324" height="2.326"/>
		<rect x="18.255" y="9.015" fill="#838687" width="2.324" height="2.322"/>
		<rect x="29.88" y="-2.61" fill="#838687" width="2.323" height="2.324"/>
		<rect x="25.23" y="-6.913" fill="#EC1C24" width="2.324" height="8.95"/>
		<rect x="22.905" y="-2.321" fill="#EC1C24" width="2.324" height="6.686"/>
		<rect x="20.579" y="0.005" fill="#EC1C24" width="2.326" height="6.684"/>
		<rect x="18.255" y="4.272" fill="#EC1C24" width="2.324" height="4.742"/>
	</g>
	<rect x="20.579" y="11.337" fill="#838687" width="2.326" height="2.326"/>
</g>
</svg>
