<?xml version="1.0" encoding="utf-8"?>
<!-- Generator: Adobe Illustrator 16.0.0, SVG Export Plug-In . SVG Version: 6.00 Build 0)  -->
<!DOCTYPE svg PUBLIC "-//W3C//DTD SVG 1.1//EN" "http://www.w3.org/Graphics/SVG/1.1/DTD/svg11.dtd">
<svg version="1.1" id="Layer_1" xmlns="http://www.w3.org/2000/svg" xmlns:xlink="http://www.w3.org/1999/xlink" x="0px" y="0px"
	 width="33.25px" height="35.584px" viewBox="0 0 33.25 35.584" enable-background="new 0 0 33.25 35.584" xml:space="preserve">
<g>
	<g>
		<path fill="#EC1C24" d="M16.625,32.292c-7.995,0-14.5-6.505-14.5-14.5s6.505-14.5,14.5-14.5s14.5,6.505,14.5,14.5
			S24.62,32.292,16.625,32.292z M16.625,4.292c-7.444,0-13.5,6.056-13.5,13.5c0,7.443,6.056,13.5,13.5,13.5s13.5-6.057,13.5-13.5
			C30.125,10.348,24.069,4.292,16.625,4.292z"/>
	</g>
	<g>
		<g>
			<path fill="#EC1C24" d="M9.812,14.325h4.438v0.799H10.65v1.979h3.118v0.8H10.65v2.098h3.679v0.82H9.812V14.325z"/>
			<path fill="#EC1C24" d="M18.3,15.145h-3.519v-0.819h4.317v0.859c-1.479,1.359-2.318,3.318-2.318,5.596v0.041h-0.92
				C15.86,18.503,16.74,16.504,18.3,15.145z"/>
			<path fill="#EC1C24" d="M19.631,18.661v-0.26h0.859v0.281c0,0.818,0.6,1.418,1.419,1.418c0.82,0,1.399-0.6,1.399-1.418
				c0-0.87-0.59-1.499-1.409-1.499c-0.479,0-0.89,0.199-1.209,0.56l-0.84-0.24l0.279-3.178h3.778v0.799h-3.058l-0.15,1.699
				c0.279-0.26,0.75-0.439,1.309-0.439c1.29,0,2.18,0.999,2.18,2.277c0,1.381-0.99,2.279-2.279,2.279
				C20.57,20.94,19.631,19.952,19.631,18.661z"/>
		</g>
	</g>
</g>
</svg>
