<?xml version="1.0" encoding="utf-8"?>
<!-- Generator: Adobe Illustrator 16.0.0, SVG Export Plug-In . SVG Version: 6.00 Build 0)  -->
<!DOCTYPE svg PUBLIC "-//W3C//DTD SVG 1.1//EN" "http://www.w3.org/Graphics/SVG/1.1/DTD/svg11.dtd">
<svg version="1.1" id="Layer_1" xmlns="http://www.w3.org/2000/svg" xmlns:xlink="http://www.w3.org/1999/xlink" x="0px" y="0px"
	 width="33.25px" height="35.584px" viewBox="0 0 33.25 35.584" enable-background="new 0 0 33.25 35.584" xml:space="preserve">
<g>
	<path fill="#EC1C24" d="M19.417,30.682l-3.145-0.003l2.176-12.046l-7.68-0.704V7.488l2.106-0.172
		c1.194-0.098,2.376-0.195,3.559-0.287c2.286-0.178,4.572-0.351,6.857-0.524l1.852-0.14c1.554-0.125,2.905,0.429,4.032,1.621
		c2.424,2.562,2.425,7.064,0.003,9.637c-0.911,0.968-2.03,1.508-3.412,1.645l-1.223,6.358c-0.258,1.354-0.516,2.706-0.799,4.053
		c-0.072,0.344-0.448,0.963-0.941,0.975C21.681,30.677,20.561,30.682,19.417,30.682z M17.469,29.68l1.948,0.002
		c1.096,0,2.17-0.005,3.243-0.025c0.045-0.055,0.095-0.14,0.105-0.184c0.281-1.341,0.538-2.687,0.796-4.033l1.37-7.126l0.395-0.018
		c1.311-0.055,2.303-0.487,3.123-1.358c2.041-2.167,2.041-6.106-0.001-8.264c-0.925-0.978-1.969-1.406-3.229-1.311l-1.853,0.14
		c-2.284,0.173-4.569,0.346-6.855,0.524c-1.181,0.091-2.362,0.188-3.554,0.286L11.769,8.41v8.606l7.857,0.72L17.469,29.68z"/>
</g>
<g>
	<path fill="#EC1C24" d="M9.277,11.209c-0.857,0-1.315-0.329-1.684-0.594c-0.329-0.236-0.565-0.406-1.101-0.406
		c-0.535,0-0.772,0.17-1.101,0.406c-0.368,0.265-0.827,0.594-1.684,0.594c-0.856,0-1.314-0.33-1.682-0.594
		c-0.328-0.235-0.564-0.406-1.098-0.406v-1c0.856,0,1.314,0.33,1.682,0.594c0.328,0.235,0.564,0.406,1.098,0.406
		c0.535,0,0.772-0.17,1.101-0.406c0.368-0.265,0.827-0.594,1.684-0.594c0.857,0,1.316,0.329,1.684,0.594
		c0.329,0.236,0.565,0.406,1.101,0.406V11.209z"/>
</g>
<g>
	<path fill="#EC1C24" d="M9.277,13.439c-0.857,0-1.315-0.329-1.684-0.594c-0.329-0.236-0.565-0.406-1.101-0.406
		c-0.535,0-0.772,0.17-1.101,0.406c-0.368,0.265-0.827,0.594-1.684,0.594c-0.856,0-1.314-0.33-1.682-0.594
		c-0.328-0.235-0.564-0.406-1.098-0.406v-1c0.856,0,1.314,0.33,1.682,0.594c0.328,0.235,0.564,0.406,1.098,0.406
		c0.535,0,0.772-0.17,1.101-0.406c0.368-0.265,0.827-0.594,1.684-0.594c0.857,0,1.316,0.329,1.684,0.594
		c0.329,0.236,0.565,0.406,1.101,0.406V13.439z"/>
</g>
<g>
	<path fill="#EC1C24" d="M9.277,15.614c-0.857,0-1.315-0.329-1.684-0.594c-0.329-0.236-0.565-0.406-1.101-0.406
		c-0.535,0-0.772,0.17-1.101,0.406c-0.368,0.265-0.827,0.594-1.684,0.594c-0.856,0-1.314-0.33-1.682-0.594
		c-0.328-0.235-0.564-0.406-1.098-0.406v-1c0.856,0,1.314,0.33,1.682,0.594c0.328,0.235,0.564,0.406,1.098,0.406
		c0.535,0,0.772-0.17,1.101-0.406c0.368-0.265,0.827-0.594,1.684-0.594c0.857,0,1.316,0.329,1.684,0.594
		c0.329,0.236,0.565,0.406,1.101,0.406V15.614z"/>
</g>
</svg>
