<?xml version="1.0" encoding="utf-8"?>
<!-- Generator: Adobe Illustrator 16.0.0, SVG Export Plug-In . SVG Version: 6.00 Build 0)  -->
<!DOCTYPE svg PUBLIC "-//W3C//DTD SVG 1.1//EN" "http://www.w3.org/Graphics/SVG/1.1/DTD/svg11.dtd">
<svg version="1.1" id="Layer_1" xmlns="http://www.w3.org/2000/svg" xmlns:xlink="http://www.w3.org/1999/xlink" x="0px" y="0px"
	 width="33.25px" height="35.584px" viewBox="0 0 33.25 35.584" enable-background="new 0 0 33.25 35.584" xml:space="preserve">
<g>
	<g>
		<path fill="#EC1C24" d="M25.975,27.379c-0.128,0-0.256-0.049-0.354-0.146L5.721,7.333c-0.195-0.195-0.195-0.512,0-0.707
			s0.512-0.195,0.707,0l19.9,19.899c0.195,0.195,0.195,0.512,0,0.707C26.23,27.33,26.103,27.379,25.975,27.379z"/>
	</g>
	<g>
		<path fill="#EC1C24" d="M6.075,27.379c-0.128,0-0.256-0.049-0.354-0.146c-0.195-0.195-0.195-0.512,0-0.707l19.9-19.899
			c0.195-0.195,0.512-0.195,0.707,0s0.195,0.512,0,0.707l-19.9,19.899C6.331,27.33,6.203,27.379,6.075,27.379z"/>
	</g>
	<g>
		<path fill="#EC1C24" d="M16.025,31.5c-0.277,0-0.5-0.224-0.5-0.5V2.857c0-0.276,0.224-0.5,0.5-0.5c0.275,0,0.5,0.224,0.5,0.5V31
			C16.525,31.276,16.301,31.5,16.025,31.5z"/>
	</g>
	<g>
		<path fill="#EC1C24" d="M30.096,17.43H1.953c-0.276,0-0.5-0.224-0.5-0.5s0.224-0.5,0.5-0.5h28.143c0.276,0,0.5,0.224,0.5,0.5
			S30.372,17.43,30.096,17.43z"/>
	</g>
</g>
</svg>
