<?xml version="1.0" encoding="utf-8"?>
<!-- Generator: Adobe Illustrator 16.0.0, SVG Export Plug-In . SVG Version: 6.00 Build 0)  -->
<!DOCTYPE svg PUBLIC "-//W3C//DTD SVG 1.1//EN" "http://www.w3.org/Graphics/SVG/1.1/DTD/svg11.dtd">
<svg version="1.1" id="Layer_1" xmlns="http://www.w3.org/2000/svg" xmlns:xlink="http://www.w3.org/1999/xlink" x="0px" y="0px"
	 width="33.25px" height="35.584px" viewBox="0 0 33.25 35.584" enable-background="new 0 0 33.25 35.584" xml:space="preserve">
<g>
	<g>
		<g>
			<path fill="#EC1C24" d="M13.775,12.039h4.933c2.107,0,3.638,1.548,3.638,3.673c0,2.143-1.566,3.709-3.709,3.709h-3.349v4.32
				h-1.513V12.039z M18.637,17.98c1.224,0,2.124-0.937,2.124-2.251s-0.9-2.25-2.124-2.25h-3.349v4.501H18.637z"/>
		</g>
	</g>
	<g>
		<path fill="#EC1C24" d="M16.625,32.292c-7.995,0-14.5-6.505-14.5-14.5s6.505-14.5,14.5-14.5s14.5,6.505,14.5,14.5
			S24.62,32.292,16.625,32.292z M16.625,4.292c-7.444,0-13.5,6.056-13.5,13.5c0,7.443,6.056,13.5,13.5,13.5s13.5-6.057,13.5-13.5
			C30.125,10.348,24.069,4.292,16.625,4.292z"/>
	</g>
</g>
</svg>
