<?xml version="1.0" encoding="utf-8"?>
<!-- Generator: Adobe Illustrator 16.0.0, SVG Export Plug-In . SVG Version: 6.00 Build 0)  -->
<!DOCTYPE svg PUBLIC "-//W3C//DTD SVG 1.1//EN" "http://www.w3.org/Graphics/SVG/1.1/DTD/svg11.dtd">
<svg version="1.1" id="Layer_1" xmlns="http://www.w3.org/2000/svg" xmlns:xlink="http://www.w3.org/1999/xlink" x="0px" y="0px"
	 width="33.25px" height="35.584px" viewBox="0 0 33.25 35.584" enable-background="new 0 0 33.25 35.584" xml:space="preserve">
<g>
	<path fill="#EC1C24" d="M22.595,34.111l-5.119-0.003l-6.015,0.001l-4.52-0.003c-1.987-0.005-2.727-0.739-2.729-2.712l-0.001-9.094
		l0-3.634c0-2.167,0.335-2.693,2.298-3.094l-0.004-0.732c-0.007-0.847-0.014-1.7,0.012-2.554c0.147-4.881,3.45-8.924,8.033-9.833
		c0.686-0.136,1.383-0.205,2.074-0.205c4.086,0,7.714,2.4,9.241,6.114c0.522,1.27,0.682,2.672,0.835,4.028
		c0.098,0.87,0.075,1.719,0.055,2.54c-0.006,0.218-0.012,0.438-0.016,0.659l0.354,0.034c1.372,0.148,2.099,0.937,2.101,2.278
		c0.016,4.607,0.016,9.217,0.003,13.826c-0.006,1.611-0.801,2.366-2.503,2.374C25.328,34.109,23.961,34.111,22.595,34.111z
		 M17.476,33.108l5.119,0.003c1.364,0,2.73-0.002,4.095-0.009c1.151-0.006,1.504-0.327,1.508-1.377
		c0.013-4.606,0.013-9.214-0.003-13.821c-0.001-0.832-0.34-1.192-1.207-1.286L25.735,16.5v-0.455c0-0.385,0.01-0.764,0.02-1.14
		c0.021-0.823,0.041-1.601-0.044-2.361c-0.15-1.328-0.301-2.659-0.771-3.8c-1.373-3.337-4.637-5.494-8.316-5.494
		c-0.625,0-1.257,0.062-1.879,0.186c-4.123,0.817-7.094,4.47-7.227,8.882c-0.025,0.84-0.019,1.681-0.012,2.515l0.006,1.572
		L7.1,16.479c-1.853,0.331-1.888,0.372-1.889,2.188l0,3.634l0.001,9.093c0.001,1.421,0.293,1.71,1.731,1.713l7.524,0.003
		L17.476,33.108z M15.032,30.873l-4.957-5.253l2.829-2.43l0.326,0.379c0.258,0.299,0.566,0.602,0.904,0.936
		c0.31,0.306,0.651,0.643,1.006,1.025c1.212-1.271,2.26-2.361,3.267-3.409c1.012-1.054,1.982-2.065,3.04-3.173l0.367-0.386
		l2.704,2.93L15.032,30.873z M11.522,25.697l3.534,3.745l8.071-7.981l-1.325-1.438c-0.918,0.961-1.78,1.858-2.675,2.79
		c-1.107,1.153-2.264,2.358-3.637,3.797l-0.379,0.397l-0.36-0.414c-0.46-0.529-0.917-0.979-1.319-1.377
		c-0.222-0.219-0.431-0.425-0.623-0.626L11.522,25.697z M23.191,16.558H9.881l0.034-0.531c0.04-0.626,0.057-1.25,0.074-1.87
		c0.037-1.364,0.076-2.774,0.36-4.121c0.609-2.881,3.639-5.009,6.848-4.742c3.141,0.265,5.706,2.767,5.968,5.821
		c0.097,1.117,0.073,2.215,0.049,3.378c-0.011,0.515-0.021,1.035-0.021,1.564V16.558z M10.941,15.558h11.253
		c0.004-0.365,0.012-0.727,0.019-1.085c0.024-1.135,0.047-2.208-0.045-3.272c-0.217-2.533-2.438-4.689-5.056-4.91
		c-2.71-0.221-5.278,1.55-5.785,3.953c-0.266,1.258-0.301,2.561-0.339,3.941C10.975,14.641,10.962,15.099,10.941,15.558z"/>
</g>
</svg>
