<?xml version="1.0" encoding="utf-8"?>
<!-- Generator: Adobe Illustrator 16.0.0, SVG Export Plug-In . SVG Version: 6.00 Build 0)  -->
<!DOCTYPE svg PUBLIC "-//W3C//DTD SVG 1.1//EN" "http://www.w3.org/Graphics/SVG/1.1/DTD/svg11.dtd">
<svg version="1.1" id="Layer_1" xmlns="http://www.w3.org/2000/svg" xmlns:xlink="http://www.w3.org/1999/xlink" x="0px" y="0px"
	 width="33.25px" height="35.584px" viewBox="0 0 33.25 35.584" enable-background="new 0 0 33.25 35.584" xml:space="preserve">
<g>
	<g>
		<path fill="#EC1C24" d="M16.625,32.292c-7.995,0-14.5-6.504-14.5-14.5c0-7.995,6.505-14.5,14.5-14.5s14.5,6.505,14.5,14.5
			C31.125,25.788,24.62,32.292,16.625,32.292z M16.625,4.292c-7.444,0-13.5,6.056-13.5,13.5c0,7.443,6.056,13.5,13.5,13.5
			s13.5-6.057,13.5-13.5C30.125,10.348,24.069,4.292,16.625,4.292z"/>
	</g>
	<g>
		<path fill="#EC1C24" d="M16.625,23.604c-3.205,0-5.812-2.607-5.812-5.812s2.607-5.812,5.812-5.812s5.812,2.607,5.812,5.812
			S19.83,23.604,16.625,23.604z M16.625,12.979c-2.653,0-4.812,2.159-4.812,4.812c0,2.654,2.159,4.812,4.812,4.812
			s4.812-2.158,4.812-4.812C21.438,15.138,19.278,12.979,16.625,12.979z"/>
	</g>
	<g>
		<circle fill="#EC1C24" cx="16.626" cy="17.792" r="1"/>
	</g>
</g>
</svg>
