<?xml version="1.0" encoding="utf-8"?>
<!-- Generator: Adobe Illustrator 16.0.0, SVG Export Plug-In . SVG Version: 6.00 Build 0)  -->
<!DOCTYPE svg PUBLIC "-//W3C//DTD SVG 1.1//EN" "http://www.w3.org/Graphics/SVG/1.1/DTD/svg11.dtd">
<svg version="1.1" id="Layer_1" xmlns="http://www.w3.org/2000/svg" xmlns:xlink="http://www.w3.org/1999/xlink" x="0px" y="0px"
	 width="33.25px" height="35.584px" viewBox="0 0 33.25 35.584" enable-background="new 0 0 33.25 35.584" xml:space="preserve">
<g>
	<g>
		<circle fill="#EC1C24" cx="16.625" cy="23.06" r="2"/>
	</g>
	<g>
		<path fill="#EC1C24" d="M12.352,20.024c-0.149,0-0.297-0.066-0.396-0.194c-0.169-0.219-0.129-0.532,0.09-0.701
			c1.328-1.026,2.911-1.569,4.579-1.569c1.537,0,3.018,0.466,4.281,1.346c0.227,0.157,0.282,0.47,0.124,0.696
			c-0.156,0.226-0.468,0.281-0.696,0.124c-2.281-1.59-5.464-1.516-7.677,0.194C12.566,19.99,12.459,20.024,12.352,20.024z"/>
	</g>
	<g>
		<path fill="#EC1C24" d="M10.709,16.887c-0.159,0-0.315-0.076-0.413-0.218c-0.155-0.228-0.097-0.539,0.131-0.694
			c1.832-1.253,3.976-1.915,6.198-1.915c2.035,0,4.033,0.571,5.777,1.651c0.234,0.146,0.307,0.453,0.161,0.688
			s-0.454,0.307-0.688,0.162c-3.316-2.056-7.694-1.942-10.884,0.238C10.905,16.858,10.807,16.887,10.709,16.887z"/>
	</g>
	<g>
		<path fill="#EC1C24" d="M9.082,13.777c-0.164,0-0.325-0.081-0.421-0.229c-0.149-0.232-0.082-0.542,0.15-0.691
			c2.342-1.502,5.044-2.297,7.813-2.297c2.546,0,5.062,0.683,7.279,1.973c0.238,0.139,0.319,0.445,0.18,0.684
			c-0.14,0.239-0.447,0.317-0.684,0.181c-2.063-1.201-4.406-1.837-6.775-1.837c-2.578,0-5.093,0.74-7.272,2.139
			C9.269,13.752,9.175,13.777,9.082,13.777z"/>
	</g>
	<g>
		<path fill="#EC1C24" d="M16.625,32.292c-7.995,0-14.5-6.505-14.5-14.5s6.505-14.5,14.5-14.5s14.5,6.505,14.5,14.5
			S24.62,32.292,16.625,32.292z M16.625,4.292c-7.444,0-13.5,6.057-13.5,13.5c0,7.444,6.056,13.5,13.5,13.5s13.5-6.056,13.5-13.5
			C30.125,10.349,24.069,4.292,16.625,4.292z"/>
	</g>
</g>
</svg>
