<?xml version="1.0" encoding="utf-8"?>
<!-- Generator: Adobe Illustrator 16.0.0, SVG Export Plug-In . SVG Version: 6.00 Build 0)  -->
<!DOCTYPE svg PUBLIC "-//W3C//DTD SVG 1.1//EN" "http://www.w3.org/Graphics/SVG/1.1/DTD/svg11.dtd">
<svg version="1.1" id="Layer_1" xmlns="http://www.w3.org/2000/svg" xmlns:xlink="http://www.w3.org/1999/xlink" x="0px" y="0px"
	 width="70.689px" height="71.764px" viewBox="0 0 70.689 71.764" enable-background="new 0 0 70.689 71.764" xml:space="preserve">
<g>
	<g>
		<path fill="#001E5F" d="M35.551,70.482c-19.3,0-35.001-15.702-35.001-35c0-19.299,15.702-35,35.001-35
			c19.298,0,34.999,15.702,34.999,35C70.55,54.78,54.85,70.482,35.551,70.482z M35.551,4.194c-17.253,0-31.289,14.036-31.289,31.288
			c0,17.251,14.036,31.287,31.289,31.287c17.25,0,31.285-14.035,31.285-31.287C66.836,18.23,52.802,4.194,35.551,4.194z
			 M22.415,52.873c-7.853-7.861-10.274-24.087-10.374-24.775c-0.083-0.579,0.11-1.164,0.524-1.577c0.414-0.414,1-0.611,1.578-0.525
			c0.284,0.041,6.495,0.957,13.102,3.455c2.901-6.424,6.636-11.451,6.807-11.68c0.35-0.469,0.901-0.745,1.487-0.745
			c0.584,0,1.136,0.276,1.486,0.745c0.171,0.228,3.905,5.252,6.811,11.673c6.601-2.494,12.806-3.41,13.087-3.45
			c0.58-0.086,1.166,0.11,1.579,0.524s0.609,0.999,0.524,1.579c-0.1,0.687-2.524,16.916-10.376,24.769
			c-5.231,5.234-9.464,6.331-13.103,6.332C31.903,59.199,27.644,58.102,22.415,52.873z M32.792,54.779
			c0.824,0.414,1.745,0.697,2.74,0.696c1.679-0.001,3.178-0.706,4.232-1.763c2.798-2.799,2.809-8.436-3.472-14.717
			c-0.239-0.239-0.492-0.476-0.76-0.712c-0.267,0.236-0.52,0.473-0.759,0.712c-3.083,3.083-4.878,6.263-5.189,9.199
			c-0.23,2.184,0.396,4.195,1.723,5.521c0.083,0.082,0.167,0.162,0.255,0.239C31.951,54.278,32.364,54.555,32.792,54.779z
			 M16.191,30.145c0.974,4.706,3.559,14.692,8.729,19.981c-0.635-2.008-1.041-4.476-1.041-7.503
			c-0.002-2.886,0.655-6.153,1.958-9.734C22.137,31.5,18.519,30.625,16.191,30.145z M45.245,32.881
			c1.307,3.583,1.969,6.854,1.97,9.742c0,2.875-0.375,5.352-1.026,7.45c5.15-5.306,7.718-15.241,8.688-19.931
			C52.553,30.622,48.941,31.495,45.245,32.881z M38.593,36.052c0.11,0.106,0.22,0.212,0.325,0.318
			c1.979,1.978,3.519,4.031,4.583,6.094c-0.024-2.376-0.591-5.107-1.683-8.143C40.649,34.872,39.572,35.451,38.593,36.052z
			 M29.265,34.331c-1.08,3.007-1.64,5.716-1.67,8.077c1.063-2.044,2.592-4.079,4.553-6.038c0.105-0.106,0.213-0.212,0.324-0.317
			C31.498,35.455,30.427,34.88,29.265,34.331z M30.67,30.889c1.809,0.844,3.435,1.754,4.862,2.72
			c1.431-0.969,3.062-1.881,4.877-2.728c-1.635-3.587-3.569-6.751-4.87-8.731C34.236,24.131,32.302,27.299,30.67,30.889z"/>
	</g>
</g>
</svg>
