<?xml version="1.0" encoding="utf-8"?>
<!-- Generator: Adobe Illustrator 16.0.0, SVG Export Plug-In . SVG Version: 6.00 Build 0)  -->
<!DOCTYPE svg PUBLIC "-//W3C//DTD SVG 1.1//EN" "http://www.w3.org/Graphics/SVG/1.1/DTD/svg11.dtd">
<svg version="1.1" id="Layer_1" xmlns="http://www.w3.org/2000/svg" xmlns:xlink="http://www.w3.org/1999/xlink" x="0px" y="0px"
	 width="331.116px" height="142.958px" viewBox="0 0 331.116 142.958" enable-background="new 0 0 331.116 142.958"
	 xml:space="preserve">
<g>
	<g>
		<g>
			<path fill="#001E5F" d="M111.939,52.61c0.187,0.214,0.396,0.431,0.63,0.65c0.233,0.22,0.497,0.417,0.79,0.59
				c0.293,0.174,0.62,0.313,0.98,0.42c0.36,0.107,0.753,0.16,1.18,0.16c0.88,0,1.566-0.2,2.06-0.6c0.493-0.4,0.74-0.94,0.74-1.62
				c0-0.733-0.28-1.283-0.84-1.65c-0.56-0.366-1.367-0.663-2.42-0.89c-0.574-0.12-1.094-0.287-1.56-0.5
				c-0.467-0.213-0.87-0.48-1.21-0.8c-0.34-0.32-0.604-0.69-0.79-1.11c-0.187-0.42-0.28-0.896-0.28-1.43
				c0-0.493,0.093-0.96,0.28-1.4c0.187-0.439,0.466-0.826,0.84-1.16c0.373-0.333,0.84-0.6,1.4-0.8s1.207-0.3,1.94-0.3
				c0.653,0,1.217,0.07,1.69,0.21s0.877,0.31,1.21,0.51c0.333,0.2,0.6,0.407,0.8,0.62c0.2,0.214,0.353,0.387,0.46,0.521l-1.28,1.18
				c-0.08-0.093-0.2-0.217-0.36-0.37c-0.16-0.153-0.363-0.303-0.61-0.45c-0.247-0.146-0.533-0.27-0.86-0.37
				c-0.327-0.1-0.704-0.149-1.13-0.149s-0.793,0.057-1.1,0.17c-0.307,0.113-0.56,0.26-0.76,0.439c-0.2,0.181-0.347,0.384-0.44,0.61
				s-0.14,0.453-0.14,0.68c0,0.334,0.07,0.617,0.21,0.851c0.14,0.233,0.343,0.439,0.61,0.62c0.267,0.18,0.596,0.333,0.99,0.46
				c0.393,0.127,0.843,0.25,1.35,0.37c0.493,0.119,0.977,0.276,1.45,0.47c0.473,0.193,0.896,0.453,1.27,0.78
				c0.373,0.326,0.67,0.727,0.89,1.199c0.22,0.474,0.33,1.051,0.33,1.73c0,0.573-0.12,1.1-0.36,1.58
				c-0.24,0.479-0.57,0.896-0.99,1.25c-0.42,0.354-0.917,0.627-1.49,0.819c-0.574,0.193-1.193,0.29-1.86,0.29
				c-0.627,0-1.197-0.073-1.71-0.22s-0.98-0.333-1.4-0.56s-0.787-0.477-1.1-0.75c-0.313-0.273-0.57-0.543-0.77-0.811L111.939,52.61z
				"/>
			<path fill="#001E5F" d="M126.999,42.511h4.22c0.906,0,1.656,0.127,2.25,0.38c0.593,0.254,1.066,0.573,1.42,0.96
				c0.353,0.387,0.6,0.82,0.74,1.3c0.14,0.48,0.21,0.947,0.21,1.4c0,0.667-0.113,1.254-0.34,1.76
				c-0.227,0.507-0.54,0.931-0.94,1.271s-0.877,0.597-1.43,0.77c-0.553,0.174-1.157,0.26-1.81,0.26h-2.42v5.24h-1.9V42.511z
				 M131.298,48.971c0.827,0,1.463-0.21,1.91-0.63s0.67-1.003,0.67-1.75c0-0.76-0.23-1.356-0.69-1.79
				c-0.46-0.433-1.09-0.65-1.89-0.65h-2.4v4.82H131.298z"/>
			<path fill="#001E5F" d="M142.318,42.511h8.4v1.7h-6.479v3.88h4.88v1.72h-4.88v4.32h6.96v1.72h-8.881V42.511z"/>
			<path fill="#001E5F" d="M168.918,53.511c-0.146,0.24-0.373,0.514-0.68,0.82s-0.68,0.597-1.12,0.87s-0.947,0.503-1.521,0.689
				s-1.206,0.28-1.899,0.28c-0.987,0-1.887-0.174-2.7-0.521c-0.813-0.346-1.514-0.829-2.1-1.449c-0.587-0.62-1.044-1.354-1.37-2.2
				c-0.327-0.847-0.49-1.771-0.49-2.771c0-0.973,0.163-1.886,0.49-2.739c0.326-0.854,0.783-1.601,1.37-2.24
				c0.586-0.641,1.29-1.144,2.109-1.51c0.82-0.367,1.73-0.551,2.73-0.551c0.706,0,1.34,0.087,1.899,0.261
				c0.561,0.173,1.051,0.39,1.471,0.649s0.779,0.544,1.08,0.851c0.3,0.307,0.543,0.6,0.729,0.88l-1.359,1.16
				c-0.16-0.227-0.351-0.464-0.57-0.71c-0.22-0.247-0.483-0.471-0.79-0.671c-0.307-0.199-0.66-0.366-1.061-0.5
				c-0.399-0.133-0.859-0.199-1.38-0.199c-0.733,0-1.39,0.14-1.97,0.42c-0.58,0.279-1.073,0.66-1.479,1.14
				c-0.407,0.48-0.718,1.04-0.931,1.68c-0.213,0.641-0.319,1.32-0.319,2.04c0,0.721,0.109,1.397,0.329,2.03
				c0.221,0.634,0.53,1.184,0.931,1.65c0.399,0.467,0.887,0.833,1.46,1.1s1.213,0.4,1.92,0.4c0.6,0,1.116-0.077,1.55-0.23
				s0.8-0.336,1.1-0.55c0.301-0.213,0.547-0.43,0.74-0.65c0.193-0.22,0.356-0.402,0.49-0.55L168.918,53.511z"/>
			<path fill="#001E5F" d="M175.138,42.511h1.921v13.34h-1.921V42.511z"/>
			<path fill="#001E5F" d="M184.218,53.15c0.387,0.44,0.777,0.761,1.17,0.96c0.394,0.2,0.863,0.301,1.41,0.301
				c0.32,0,0.617-0.051,0.891-0.15c0.272-0.1,0.517-0.257,0.729-0.47s0.38-0.486,0.5-0.82c0.12-0.333,0.18-0.733,0.18-1.2v-9.26
				h1.921v9.42c0,0.773-0.114,1.43-0.341,1.97s-0.529,0.98-0.909,1.32c-0.381,0.34-0.824,0.587-1.33,0.74
				c-0.507,0.153-1.04,0.229-1.601,0.229c-0.986,0-1.793-0.173-2.42-0.52s-1.146-0.787-1.56-1.32L184.218,53.15z"/>
			<path fill="#001E5F" d="M201.878,42.511h1.96l5.22,13.34h-2.14l-1.38-3.72h-5.48l-1.38,3.72h-2.02L201.878,42.511z
				 M204.958,50.511l-2.16-5.86l-2.18,5.86H204.958z"/>
			<path fill="#001E5F" d="M214.797,42.511h1.921v11.64h6.939v1.7h-8.86V42.511z"/>
			<path fill="#001E5F" d="M229.757,42.511h1.921v13.34h-1.921V42.511z"/>
			<path fill="#001E5F" d="M239.297,52.61c0.187,0.214,0.396,0.431,0.631,0.65c0.232,0.22,0.496,0.417,0.789,0.59
				c0.294,0.174,0.62,0.313,0.98,0.42c0.36,0.107,0.753,0.16,1.18,0.16c0.88,0,1.566-0.2,2.061-0.6c0.493-0.4,0.74-0.94,0.74-1.62
				c0-0.733-0.28-1.283-0.841-1.65c-0.56-0.366-1.366-0.663-2.42-0.89c-0.573-0.12-1.093-0.287-1.56-0.5s-0.87-0.48-1.21-0.8
				c-0.34-0.32-0.604-0.69-0.79-1.11c-0.188-0.42-0.28-0.896-0.28-1.43c0-0.493,0.093-0.96,0.28-1.4
				c0.187-0.439,0.467-0.826,0.84-1.16c0.373-0.333,0.84-0.6,1.4-0.8c0.56-0.2,1.206-0.3,1.939-0.3c0.653,0,1.217,0.07,1.69,0.21
				c0.473,0.14,0.876,0.31,1.21,0.51c0.333,0.2,0.6,0.407,0.8,0.62c0.2,0.214,0.354,0.387,0.46,0.521l-1.28,1.18
				c-0.08-0.093-0.2-0.217-0.359-0.37c-0.16-0.153-0.364-0.303-0.61-0.45c-0.247-0.146-0.533-0.27-0.86-0.37
				c-0.326-0.1-0.703-0.149-1.13-0.149s-0.793,0.057-1.1,0.17s-0.561,0.26-0.76,0.439c-0.2,0.181-0.348,0.384-0.44,0.61
				c-0.094,0.227-0.14,0.453-0.14,0.68c0,0.334,0.069,0.617,0.21,0.851c0.14,0.233,0.343,0.439,0.609,0.62
				c0.267,0.18,0.597,0.333,0.99,0.46s0.843,0.25,1.351,0.37c0.492,0.119,0.977,0.276,1.449,0.47
				c0.474,0.193,0.896,0.453,1.271,0.78c0.373,0.326,0.67,0.727,0.89,1.199c0.22,0.474,0.33,1.051,0.33,1.73
				c0,0.573-0.12,1.1-0.36,1.58c-0.239,0.479-0.569,0.896-0.989,1.25s-0.917,0.627-1.49,0.819c-0.573,0.193-1.193,0.29-1.86,0.29
				c-0.627,0-1.196-0.073-1.71-0.22s-0.979-0.333-1.399-0.56s-0.787-0.477-1.101-0.75s-0.569-0.543-0.77-0.811L239.297,52.61z"/>
			<path fill="#001E5F" d="M257.496,44.19h-4.779v-1.68h11.46v1.68h-4.761v11.66h-1.92V44.19z"/>
			<path fill="#001E5F" d="M270.176,42.511h1.921v13.34h-1.921V42.511z"/>
			<path fill="#001E5F" d="M290.456,53.511c-0.146,0.24-0.373,0.514-0.68,0.82s-0.68,0.597-1.12,0.87s-0.947,0.503-1.521,0.689
				s-1.206,0.28-1.899,0.28c-0.987,0-1.887-0.174-2.701-0.521c-0.812-0.346-1.513-0.829-2.099-1.449
				c-0.587-0.62-1.044-1.354-1.37-2.2c-0.327-0.847-0.49-1.771-0.49-2.771c0-0.973,0.163-1.886,0.49-2.739
				c0.326-0.854,0.783-1.601,1.37-2.24c0.586-0.641,1.29-1.144,2.109-1.51c0.82-0.367,1.73-0.551,2.73-0.551
				c0.706,0,1.34,0.087,1.899,0.261c0.561,0.173,1.051,0.39,1.471,0.649s0.779,0.544,1.08,0.851c0.3,0.307,0.543,0.6,0.729,0.88
				l-1.359,1.16c-0.16-0.227-0.351-0.464-0.57-0.71c-0.22-0.247-0.483-0.471-0.79-0.671c-0.307-0.199-0.66-0.366-1.061-0.5
				c-0.399-0.133-0.859-0.199-1.38-0.199c-0.733,0-1.39,0.14-1.97,0.42c-0.58,0.279-1.073,0.66-1.479,1.14
				c-0.407,0.48-0.718,1.04-0.931,1.68c-0.213,0.641-0.319,1.32-0.319,2.04c0,0.721,0.109,1.397,0.329,2.03
				c0.221,0.634,0.53,1.184,0.931,1.65c0.399,0.467,0.887,0.833,1.46,1.1s1.213,0.4,1.92,0.4c0.6,0,1.116-0.077,1.549-0.23
				c0.435-0.153,0.801-0.336,1.101-0.55c0.301-0.213,0.547-0.43,0.74-0.65c0.193-0.22,0.356-0.402,0.49-0.55L290.456,53.511z
				 M283.816,38.451c0.253,0.307,0.496,0.613,0.729,0.92s0.477,0.613,0.73,0.92l1.439-1.84h1.681l-2.261,3h-1.76
				c-0.387-0.507-0.76-1.007-1.12-1.5c-0.359-0.493-0.727-0.993-1.1-1.5H283.816z"/>
			<path fill="#001E5F" d="M296.676,42.511h1.9v6.061l5.58-6.061h2.2l-4.96,5.44l5.56,7.899h-2.3l-4.56-6.54l-1.521,1.641v4.899
				h-1.9V42.511z"/>
			<path fill="#001E5F" d="M316.636,42.511h1.96l5.22,13.34h-2.14l-1.38-3.72h-5.48l-1.38,3.72h-2.02L316.636,42.511z
				 M319.716,50.511l-2.16-5.86l-2.18,5.86H319.716z"/>
			<path fill="#001E5F" d="M118.179,73.071h4.68v5.319c-0.253,0.228-0.543,0.446-0.87,0.66s-0.707,0.403-1.14,0.569
				c-0.433,0.168-0.917,0.301-1.45,0.4c-0.534,0.1-1.133,0.15-1.8,0.15c-1.04,0-1.977-0.177-2.81-0.53
				c-0.833-0.353-1.547-0.84-2.14-1.46c-0.593-0.619-1.047-1.354-1.36-2.2c-0.313-0.847-0.47-1.77-0.47-2.77
				c0-0.974,0.163-1.887,0.49-2.74c0.326-0.853,0.783-1.597,1.37-2.229c0.587-0.634,1.29-1.134,2.11-1.5
				c0.82-0.367,1.73-0.551,2.73-0.551c0.707,0,1.34,0.084,1.9,0.25c0.56,0.167,1.05,0.381,1.47,0.641
				c0.42,0.26,0.777,0.543,1.07,0.85c0.293,0.307,0.54,0.601,0.74,0.88l-1.36,1.16c-0.16-0.227-0.354-0.463-0.58-0.71
				c-0.227-0.246-0.493-0.47-0.8-0.67c-0.307-0.2-0.657-0.366-1.05-0.5c-0.393-0.133-0.843-0.2-1.35-0.2
				c-0.734,0-1.394,0.141-1.98,0.42c-0.587,0.28-1.083,0.66-1.49,1.141c-0.407,0.479-0.72,1.043-0.94,1.689
				c-0.22,0.647-0.33,1.33-0.33,2.05c0,0.773,0.12,1.48,0.36,2.121c0.24,0.639,0.577,1.189,1.01,1.649
				c0.433,0.46,0.943,0.82,1.53,1.079c0.587,0.261,1.233,0.391,1.94,0.391c0.773,0,1.43-0.086,1.97-0.26
				c0.54-0.173,1.003-0.414,1.39-0.721v-2.72h-2.84V73.071z"/>
			<path fill="#001E5F" d="M129.779,66.511h1.92v13.34h-1.92V66.511z"/>
			<path fill="#001E5F" d="M138.738,66.511h1.94l7.28,10.42v-10.42h1.88v13.34h-1.92l-7.3-10.439v10.439h-1.881V66.511z"/>
			<path fill="#001E5F" d="M156.878,66.511h8.4v1.7h-6.479v3.88h4.88v1.721h-4.88v4.318h6.96v1.721h-8.881V66.511z"/>
			<path fill="#001E5F" d="M172.157,66.511h1.9v6.061l5.58-6.061h2.2l-4.96,5.44l5.56,7.9h-2.3l-4.56-6.539l-1.521,1.639v4.9h-1.9
				V66.511z"/>
			<path fill="#001E5F" d="M193.479,80.19c-0.96,0-1.854-0.184-2.681-0.55c-0.826-0.366-1.547-0.866-2.159-1.5
				c-0.614-0.634-1.094-1.376-1.44-2.229s-0.52-1.768-0.52-2.74c0-0.974,0.173-1.883,0.52-2.73c0.347-0.846,0.823-1.586,1.43-2.22
				c0.606-0.633,1.327-1.133,2.16-1.5c0.833-0.366,1.73-0.55,2.69-0.55s1.856,0.184,2.689,0.55c0.833,0.367,1.557,0.867,2.17,1.5
				c0.613,0.634,1.094,1.374,1.44,2.22c0.347,0.847,0.52,1.757,0.52,2.73c0,0.973-0.173,1.887-0.52,2.74s-0.827,1.596-1.44,2.229
				s-1.337,1.134-2.17,1.5S194.438,80.19,193.479,80.19z M193.479,78.391c0.732,0,1.396-0.14,1.989-0.42
				c0.594-0.28,1.101-0.659,1.521-1.14s0.743-1.037,0.97-1.67c0.227-0.634,0.34-1.304,0.34-2.011c0-0.72-0.113-1.396-0.34-2.03
				s-0.55-1.19-0.97-1.669c-0.42-0.48-0.927-0.856-1.521-1.13c-0.593-0.273-1.257-0.41-1.989-0.41c-0.733,0-1.394,0.137-1.98,0.41
				s-1.09,0.649-1.51,1.13c-0.42,0.479-0.743,1.036-0.97,1.669c-0.228,0.633-0.34,1.31-0.34,2.03c0,0.707,0.112,1.377,0.34,2.011
				c0.227,0.633,0.55,1.189,0.97,1.67s0.923,0.859,1.51,1.14S192.745,78.391,193.479,78.391z"/>
			<path fill="#001E5F" d="M206.798,66.511h1.921v11.64h6.939v1.7h-8.86V66.511z"/>
			<path fill="#001E5F" d="M226.719,80.19c-0.96,0-1.854-0.184-2.681-0.55c-0.826-0.366-1.547-0.866-2.159-1.5
				c-0.614-0.634-1.094-1.376-1.44-2.229s-0.52-1.768-0.52-2.74c0-0.974,0.173-1.883,0.52-2.73c0.347-0.846,0.823-1.586,1.43-2.22
				c0.606-0.633,1.327-1.133,2.16-1.5c0.833-0.366,1.73-0.55,2.69-0.55s1.856,0.184,2.689,0.55c0.833,0.367,1.557,0.867,2.17,1.5
				c0.613,0.634,1.094,1.374,1.44,2.22c0.347,0.847,0.52,1.757,0.52,2.73c0,0.973-0.173,1.887-0.52,2.74s-0.827,1.596-1.44,2.229
				s-1.337,1.134-2.17,1.5S227.679,80.19,226.719,80.19z M226.719,78.391c0.732,0,1.396-0.14,1.989-0.42
				c0.594-0.28,1.101-0.659,1.521-1.14s0.743-1.037,0.97-1.67c0.227-0.634,0.34-1.304,0.34-2.011c0-0.72-0.113-1.396-0.34-2.03
				s-0.55-1.19-0.97-1.669c-0.42-0.48-0.927-0.856-1.521-1.13c-0.593-0.273-1.257-0.41-1.989-0.41c-0.733,0-1.394,0.137-1.98,0.41
				s-1.09,0.649-1.51,1.13c-0.42,0.479-0.743,1.036-0.97,1.669c-0.228,0.633-0.34,1.31-0.34,2.03c0,0.707,0.112,1.377,0.34,2.011
				c0.227,0.633,0.55,1.189,0.97,1.67s0.923,0.859,1.51,1.14S225.985,78.391,226.719,78.391z"/>
			<path fill="#001E5F" d="M240.498,76.61c0.187,0.214,0.396,0.43,0.631,0.65c0.232,0.22,0.496,0.417,0.789,0.59
				c0.294,0.174,0.62,0.313,0.98,0.42c0.36,0.107,0.753,0.16,1.18,0.16c0.88,0,1.566-0.2,2.061-0.6c0.493-0.4,0.74-0.94,0.74-1.62
				c0-0.733-0.28-1.283-0.841-1.649c-0.56-0.367-1.366-0.664-2.42-0.891c-0.573-0.12-1.093-0.287-1.56-0.5s-0.87-0.48-1.21-0.801
				c-0.34-0.319-0.604-0.689-0.79-1.109c-0.188-0.42-0.28-0.896-0.28-1.43c0-0.493,0.093-0.96,0.28-1.4
				c0.187-0.439,0.467-0.826,0.84-1.16c0.373-0.333,0.84-0.6,1.4-0.8c0.56-0.2,1.206-0.3,1.939-0.3c0.653,0,1.217,0.07,1.69,0.21
				c0.473,0.14,0.876,0.31,1.21,0.51c0.333,0.2,0.6,0.407,0.8,0.62c0.2,0.214,0.354,0.387,0.46,0.521l-1.28,1.18
				c-0.08-0.093-0.2-0.217-0.359-0.37c-0.16-0.153-0.364-0.303-0.61-0.45c-0.247-0.146-0.533-0.27-0.86-0.37
				c-0.326-0.1-0.703-0.149-1.13-0.149s-0.793,0.057-1.1,0.17s-0.561,0.26-0.76,0.439c-0.2,0.181-0.348,0.384-0.44,0.61
				c-0.094,0.227-0.14,0.453-0.14,0.68c0,0.334,0.069,0.617,0.21,0.85c0.14,0.233,0.343,0.44,0.609,0.62s0.597,0.333,0.99,0.46
				c0.394,0.127,0.843,0.25,1.351,0.37c0.492,0.12,0.977,0.278,1.449,0.469c0.474,0.193,0.896,0.454,1.271,0.781
				c0.373,0.326,0.67,0.727,0.89,1.199c0.22,0.474,0.33,1.051,0.33,1.73c0,0.573-0.12,1.1-0.36,1.58
				c-0.239,0.48-0.569,0.896-0.989,1.25s-0.917,0.627-1.49,0.819c-0.573,0.194-1.193,0.29-1.86,0.29c-0.627,0-1.196-0.073-1.71-0.22
				s-0.979-0.333-1.399-0.56s-0.787-0.477-1.101-0.75s-0.569-0.543-0.77-0.811L240.498,76.61z M242.799,62.451
				c0.253,0.307,0.496,0.613,0.729,0.92s0.477,0.613,0.73,0.92l1.439-1.84h1.681l-2.261,3h-1.76c-0.387-0.507-0.76-1.007-1.12-1.5
				c-0.359-0.493-0.727-0.993-1.1-1.5H242.799z"/>
			<path fill="#001E5F" d="M255.558,66.511h1.9v6.061l5.58-6.061h2.2l-4.96,5.44l5.56,7.9h-2.3l-4.56-6.539l-1.521,1.639v4.9h-1.9
				V66.511z"/>
			<path fill="#001E5F" d="M275.518,66.511h1.96l5.22,13.34h-2.14l-1.38-3.721h-5.48l-1.38,3.721h-2.02L275.518,66.511z
				 M278.598,74.511l-2.16-5.86l-2.18,5.86H278.598z"/>
			<path fill="#001E5F" d="M117.619,104.19c-0.96,0-1.853-0.184-2.68-0.55c-0.827-0.366-1.547-0.866-2.16-1.5
				s-1.093-1.376-1.44-2.229s-0.52-1.768-0.52-2.74c0-0.974,0.173-1.883,0.52-2.73c0.347-0.846,0.823-1.586,1.43-2.22
				c0.606-0.634,1.326-1.134,2.16-1.5s1.73-0.55,2.69-0.55c0.96,0,1.857,0.184,2.69,0.55c0.833,0.366,1.556,0.866,2.17,1.5
				c0.613,0.634,1.093,1.374,1.44,2.22c0.347,0.848,0.52,1.757,0.52,2.73c0,0.973-0.173,1.887-0.52,2.74
				c-0.347,0.854-0.827,1.596-1.44,2.229c-0.614,0.634-1.337,1.134-2.17,1.5C119.476,104.007,118.579,104.19,117.619,104.19z
				 M117.619,102.391c0.733,0,1.397-0.14,1.99-0.42s1.1-0.659,1.52-1.14s0.743-1.037,0.97-1.67c0.227-0.634,0.34-1.304,0.34-2.011
				c0-0.72-0.114-1.396-0.34-2.03c-0.227-0.633-0.55-1.189-0.97-1.67c-0.42-0.479-0.927-0.855-1.52-1.129s-1.257-0.41-1.99-0.41
				s-1.393,0.137-1.98,0.41s-1.09,0.649-1.51,1.129c-0.42,0.48-0.744,1.037-0.97,1.67c-0.227,0.634-0.34,1.311-0.34,2.03
				c0,0.707,0.113,1.377,0.34,2.011c0.227,0.633,0.55,1.189,0.97,1.67s0.923,0.859,1.51,1.14S116.885,102.391,117.619,102.391z"/>
			<path fill="#001E5F" d="M130.939,90.511h4.26c0.853,0,1.574,0.117,2.161,0.35c0.586,0.234,1.062,0.533,1.43,0.9
				c0.366,0.367,0.633,0.783,0.8,1.25s0.25,0.939,0.25,1.42c0,0.854-0.2,1.607-0.6,2.26c-0.4,0.654-1.021,1.141-1.86,1.46l3.12,5.7
				h-2.16l-2.86-5.46h-2.68v5.46h-1.86V90.511z M135.359,96.771c0.839,0,1.47-0.206,1.89-0.62c0.42-0.413,0.63-0.966,0.63-1.659
				c0-0.734-0.227-1.304-0.68-1.71c-0.454-0.407-1.08-0.61-1.88-0.61h-2.52v4.6H135.359z"/>
			<path fill="#001E5F" d="M146.738,90.511h4.461c1.053,0,2.022,0.13,2.909,0.39c0.887,0.261,1.65,0.667,2.29,1.22
				c0.641,0.554,1.141,1.25,1.5,2.091c0.36,0.84,0.54,1.84,0.54,3c0,1.12-0.18,2.097-0.54,2.93c-0.359,0.833-0.859,1.526-1.5,2.08
				c-0.64,0.554-1.406,0.964-2.3,1.229c-0.894,0.268-1.867,0.4-2.92,0.4h-4.44V90.511z M151.139,102.13
				c1.667,0,2.963-0.409,3.89-1.229c0.927-0.819,1.391-2.036,1.391-3.649c0-1.627-0.447-2.871-1.34-3.73
				c-0.894-0.859-2.228-1.29-4-1.29h-2.42v9.899H151.139z"/>
			<path fill="#001E5F" d="M165.038,90.511h1.921v13.34h-1.921V90.511z"/>
			<path fill="#001E5F" d="M173.998,90.511h1.94l7.28,10.42v-10.42h1.88v13.34h-1.92l-7.3-10.439v10.439h-1.881V90.511z"/>
			<path fill="#001E5F" d="M196.038,90.511h1.96l5.22,13.34h-2.14l-1.38-3.721h-5.48l-1.38,3.721h-2.02L196.038,90.511z
				 M199.118,98.511l-2.16-5.86l-2.18,5.86H199.118z"/>
			<path fill="#001E5F" d="M220.277,101.511c-0.146,0.24-0.373,0.514-0.68,0.82s-0.68,0.597-1.12,0.869
				c-0.44,0.273-0.947,0.504-1.521,0.69s-1.206,0.28-1.899,0.28c-0.987,0-1.887-0.174-2.7-0.521s-1.514-0.829-2.1-1.45
				c-0.587-0.619-1.044-1.353-1.37-2.199c-0.327-0.848-0.49-1.771-0.49-2.771c0-0.974,0.163-1.886,0.49-2.739
				c0.326-0.854,0.783-1.601,1.37-2.24c0.586-0.641,1.29-1.144,2.109-1.51c0.82-0.367,1.73-0.551,2.73-0.551
				c0.706,0,1.34,0.087,1.899,0.26c0.561,0.174,1.051,0.391,1.471,0.65s0.779,0.543,1.08,0.85c0.3,0.307,0.543,0.601,0.729,0.881
				l-1.359,1.16c-0.16-0.227-0.351-0.464-0.57-0.71c-0.22-0.247-0.483-0.47-0.79-0.671c-0.307-0.199-0.66-0.366-1.061-0.5
				c-0.399-0.133-0.859-0.199-1.38-0.199c-0.733,0-1.39,0.14-1.97,0.42c-0.58,0.279-1.073,0.66-1.479,1.14
				c-0.407,0.479-0.718,1.04-0.931,1.68s-0.319,1.32-0.319,2.04c0,0.721,0.109,1.396,0.329,2.03c0.221,0.634,0.53,1.183,0.931,1.649
				c0.399,0.467,0.887,0.834,1.46,1.101s1.213,0.399,1.92,0.399c0.6,0,1.116-0.076,1.55-0.229s0.8-0.337,1.1-0.55
				c0.301-0.213,0.547-0.43,0.74-0.65c0.193-0.22,0.356-0.402,0.49-0.55L220.277,101.511z"/>
			<path fill="#001E5F" d="M226.497,90.511h1.921v13.34h-1.921V90.511z"/>
			<path fill="#001E5F" d="M235.577,101.15c0.387,0.44,0.777,0.761,1.17,0.96c0.394,0.201,0.863,0.301,1.41,0.301
				c0.32,0,0.617-0.051,0.891-0.15c0.272-0.1,0.517-0.257,0.729-0.471c0.213-0.213,0.38-0.486,0.5-0.819s0.18-0.733,0.18-1.2v-9.26
				h1.921v9.42c0,0.773-0.114,1.43-0.341,1.97s-0.529,0.979-0.909,1.32c-0.381,0.341-0.824,0.587-1.33,0.74
				c-0.507,0.153-1.04,0.229-1.601,0.229c-0.986,0-1.793-0.174-2.42-0.52c-0.627-0.347-1.146-0.787-1.56-1.32L235.577,101.15z"/>
			<path fill="#001E5F" d="M253.237,90.511h1.96l5.22,13.34h-2.14l-1.38-3.721h-5.48l-1.38,3.721h-2.02L253.237,90.511z
				 M256.317,98.511l-2.16-5.86l-2.18,5.86H256.317z"/>
			<path fill="#001E5F" d="M111.359,128.505h4.46c1.053,0,2.023,0.129,2.91,0.39c0.886,0.26,1.65,0.667,2.29,1.22
				c0.64,0.553,1.14,1.25,1.5,2.09c0.36,0.841,0.54,1.841,0.54,3c0,1.121-0.18,2.098-0.54,2.93c-0.36,0.834-0.86,1.527-1.5,2.081
				c-0.64,0.554-1.407,0.963-2.3,1.229c-0.894,0.268-1.867,0.4-2.92,0.4h-4.44V128.505z M115.759,140.125
				c1.667,0,2.963-0.41,3.89-1.23c0.926-0.819,1.39-2.036,1.39-3.649c0-1.627-0.447-2.87-1.34-3.73s-2.227-1.29-4-1.29h-2.42v9.9
				H115.759z"/>
			<path fill="#001E5F" d="M129.379,134.444c0-0.386,0-0.723,0-1.01c0-0.286-0.007-0.584-0.02-0.89h1.72l0.06,1.5
				c0.106-0.161,0.247-0.337,0.42-0.53s0.383-0.37,0.63-0.531c0.247-0.158,0.533-0.295,0.86-0.408
				c0.326-0.113,0.703-0.171,1.13-0.171c0.2,0,0.383,0.013,0.55,0.04s0.323,0.067,0.47,0.12l-0.4,1.681
				c-0.24-0.094-0.547-0.141-0.92-0.141c-0.387,0-0.744,0.073-1.07,0.221c-0.327,0.146-0.61,0.35-0.85,0.609
				c-0.24,0.26-0.43,0.563-0.57,0.91s-0.21,0.714-0.21,1.1v4.9h-1.8V134.444z"/>
			<path fill="#001E5F" d="M149.139,138.604c0.187,0.213,0.396,0.43,0.631,0.65c0.232,0.22,0.496,0.416,0.789,0.59
				c0.294,0.174,0.62,0.313,0.98,0.42c0.36,0.107,0.753,0.16,1.18,0.16c0.88,0,1.566-0.2,2.061-0.6c0.493-0.4,0.74-0.941,0.74-1.621
				c0-0.732-0.28-1.283-0.841-1.649c-0.56-0.366-1.366-0.663-2.42-0.89c-0.573-0.12-1.093-0.287-1.56-0.5
				c-0.467-0.215-0.87-0.48-1.21-0.801c-0.34-0.319-0.604-0.689-0.79-1.109c-0.188-0.42-0.28-0.896-0.28-1.43
				c0-0.493,0.093-0.961,0.28-1.4c0.187-0.441,0.467-0.826,0.84-1.16c0.373-0.333,0.84-0.6,1.4-0.8c0.56-0.2,1.206-0.3,1.939-0.3
				c0.653,0,1.217,0.068,1.69,0.21c0.473,0.14,0.876,0.31,1.21,0.509c0.333,0.201,0.6,0.408,0.8,0.621s0.354,0.387,0.46,0.52
				l-1.28,1.18c-0.08-0.093-0.2-0.217-0.359-0.369c-0.16-0.153-0.364-0.304-0.61-0.451c-0.247-0.146-0.533-0.27-0.86-0.369
				c-0.326-0.1-0.703-0.15-1.13-0.15s-0.793,0.057-1.1,0.17c-0.307,0.114-0.561,0.261-0.76,0.44c-0.2,0.18-0.348,0.384-0.44,0.61
				c-0.094,0.227-0.14,0.453-0.14,0.68c0,0.334,0.069,0.617,0.21,0.85c0.14,0.234,0.343,0.44,0.609,0.619
				c0.267,0.182,0.597,0.334,0.99,0.461s0.843,0.25,1.351,0.37c0.492,0.12,0.977,0.277,1.449,0.47
				c0.474,0.194,0.896,0.453,1.271,0.78c0.373,0.327,0.67,0.728,0.89,1.2s0.33,1.05,0.33,1.73c0,0.572-0.12,1.1-0.36,1.58
				c-0.239,0.479-0.569,0.896-0.989,1.25c-0.42,0.353-0.917,0.625-1.49,0.819c-0.573,0.193-1.193,0.29-1.86,0.29
				c-0.627,0-1.196-0.073-1.71-0.22c-0.514-0.147-0.979-0.333-1.399-0.561c-0.42-0.227-0.787-0.477-1.101-0.75
				c-0.313-0.272-0.569-0.543-0.77-0.81L149.139,138.604z"/>
			<path fill="#001E5F" d="M167.898,128.505h1.96l5.22,13.34h-2.14l-1.38-3.72h-5.48l-1.38,3.72h-2.02L167.898,128.505z
				 M170.979,136.505l-2.16-5.86l-2.18,5.86H170.979z"/>
			<path fill="#001E5F" d="M180.818,128.505h1.94l7.28,10.42v-10.42h1.88v13.34h-1.92l-7.3-10.44v10.44h-1.881V128.505z"/>
			<path fill="#001E5F" d="M199.078,139.145c0.387,0.44,0.777,0.76,1.17,0.96c0.394,0.2,0.863,0.3,1.41,0.3
				c0.32,0,0.617-0.05,0.891-0.149c0.272-0.101,0.517-0.257,0.729-0.471c0.213-0.213,0.38-0.486,0.5-0.819s0.18-0.733,0.18-1.2
				v-9.26h1.921v9.42c0,0.773-0.114,1.43-0.341,1.97s-0.529,0.98-0.909,1.32c-0.381,0.34-0.824,0.587-1.33,0.739
				c-0.507,0.153-1.04,0.23-1.601,0.23c-0.986,0-1.793-0.173-2.42-0.52c-0.627-0.348-1.146-0.787-1.56-1.32L199.078,139.145z"/>
			<path fill="#001E5F" d="M216.737,128.505h1.96l5.22,13.34h-2.14l-1.38-3.72h-5.48l-1.38,3.72h-2.02L216.737,128.505z
				 M219.817,136.505l-2.16-5.86l-2.18,5.86H219.817z"/>
			<path fill="#001E5F" d="M237.277,128.505h4.521c0.693,0,1.293,0.09,1.8,0.27s0.927,0.424,1.26,0.73
				c0.334,0.307,0.584,0.666,0.75,1.08c0.167,0.413,0.25,0.854,0.25,1.319c0,0.428-0.076,0.813-0.229,1.16s-0.34,0.64-0.561,0.88
				c-0.22,0.24-0.46,0.434-0.72,0.58s-0.497,0.233-0.71,0.26c0.28,0.041,0.59,0.124,0.93,0.25c0.341,0.127,0.657,0.316,0.95,0.57
				s0.54,0.584,0.74,0.99c0.2,0.407,0.3,0.91,0.3,1.51c0,0.721-0.13,1.316-0.39,1.79s-0.613,0.857-1.061,1.15
				c-0.446,0.293-0.977,0.5-1.59,0.62c-0.613,0.119-1.267,0.18-1.96,0.18h-4.28V128.505z M241.518,134.064
				c0.293,0,0.587-0.036,0.88-0.11c0.294-0.072,0.561-0.189,0.801-0.35c0.239-0.16,0.433-0.367,0.579-0.621
				c0.147-0.252,0.221-0.559,0.221-0.919c0-0.399-0.073-0.723-0.221-0.97c-0.146-0.246-0.34-0.44-0.579-0.58
				c-0.24-0.14-0.507-0.233-0.801-0.281c-0.293-0.045-0.587-0.068-0.88-0.068h-2.38v3.899H241.518z M241.458,140.185
				c0.347,0,0.706-0.02,1.08-0.06c0.373-0.04,0.716-0.134,1.029-0.28s0.57-0.363,0.771-0.65c0.2-0.286,0.3-0.683,0.3-1.189
				c0-0.48-0.097-0.867-0.29-1.16s-0.439-0.527-0.74-0.7c-0.3-0.173-0.63-0.29-0.989-0.35c-0.36-0.062-0.707-0.091-1.04-0.091h-2.44
				v4.48H241.458z"/>
			<path fill="#001E5F" d="M252.857,128.505h1.92v7.8c0,0.6,0.054,1.149,0.16,1.649s0.29,0.93,0.55,1.291
				c0.26,0.359,0.606,0.637,1.04,0.83s0.983,0.289,1.65,0.289c0.653,0,1.196-0.096,1.63-0.289c0.433-0.193,0.78-0.471,1.04-0.83
				c0.26-0.361,0.443-0.791,0.55-1.291s0.16-1.05,0.16-1.649v-7.8h1.92v8.26c0,0.76-0.106,1.469-0.32,2.13
				c-0.213,0.66-0.536,1.233-0.97,1.72s-0.983,0.869-1.65,1.15c-0.666,0.28-1.453,0.42-2.359,0.42c-0.907,0-1.693-0.14-2.36-0.42
				c-0.667-0.281-1.22-0.664-1.66-1.15c-0.439-0.486-0.767-1.06-0.979-1.72c-0.214-0.661-0.32-1.37-0.32-2.13V128.505z"/>
			<path fill="#001E5F" d="M270.417,128.505h4.261c0.853,0,1.573,0.117,2.16,0.35c0.586,0.233,1.062,0.533,1.43,0.9
				c0.366,0.367,0.633,0.783,0.8,1.25s0.25,0.939,0.25,1.42c0,0.854-0.2,1.606-0.6,2.26c-0.4,0.653-1.021,1.141-1.86,1.46l3.12,5.7
				h-2.16l-2.86-5.461h-2.68v5.461h-1.86V128.505z M274.838,134.765c0.84,0,1.47-0.206,1.89-0.62c0.42-0.413,0.63-0.967,0.63-1.661
				c0-0.731-0.227-1.302-0.68-1.709c-0.455-0.406-1.08-0.609-1.88-0.609h-2.521v4.6H274.838z"/>
			<path fill="#001E5F" d="M285.517,140.165l8.301-9.961h-7.9v-1.699h10.24v1.699l-8.2,9.94h8.34v1.7h-10.78V140.165z"/>
			<path fill="#001E5F" d="M306.758,128.505h1.96l5.22,13.34h-2.14l-1.38-3.72h-5.48l-1.38,3.72h-2.02L306.758,128.505z
				 M309.838,136.505l-2.16-5.86l-2.18,5.86H309.838z"/>
			<path fill="#001E5F" d="M319.677,128.505h1.94l7.28,10.42v-10.42h1.88v13.34h-1.92l-7.3-10.44v10.44h-1.881V128.505z"/>
		</g>
		<g>
			<path fill="#001E5F" d="M132.047,10.399h-9.633c-0.184,0-0.334,0.148-0.334,0.334v3.422c0,0.184,0.15,0.334,0.334,0.334h5
				c-0.463,0.826-1.041,1.451-1.721,1.867c-0.807,0.494-1.82,0.746-3.012,0.746c-1.838,0-3.404-0.615-4.654-1.832
				c-1.248-1.213-1.879-2.713-1.879-4.459c0-1.688,0.607-3.141,1.807-4.318c1.203-1.182,2.719-1.781,4.504-1.781
				c2.057,0,3.887,0.832,5.439,2.475c0.061,0.064,0.146,0.102,0.236,0.104c0.09-0.002,0.176-0.033,0.238-0.096l2.566-2.537
				c0.129-0.129,0.133-0.332,0.012-0.465c-1.199-1.295-2.447-2.225-3.707-2.762c-1.484-0.631-3.1-0.949-4.805-0.949
				c-3.27,0-5.963,1.162-8.006,3.455c-1.723,1.928-2.598,4.229-2.598,6.834c0,1.898,0.475,3.691,1.404,5.332
				c0.934,1.645,2.221,2.928,3.826,3.818c1.6,0.887,3.441,1.336,5.479,1.336c1.906,0,3.596-0.414,5.02-1.229
				c1.426-0.816,2.602-2.014,3.496-3.561c0.891-1.545,1.346-3.203,1.344-4.939l-0.025-0.809
				C132.374,10.54,132.227,10.399,132.047,10.399"/>
			<path fill="#001E5F" d="M144.108,0.962h-3.619c-0.184,0-0.334,0.15-0.334,0.334v19.146c0,0.184,0.15,0.334,0.334,0.334h3.619
				c0.184,0,0.334-0.15,0.334-0.334V1.296C144.442,1.112,144.292,0.962,144.108,0.962"/>
			<path fill="#001E5F" d="M168.885,0.962h-3.644c-0.184,0-0.334,0.15-0.334,0.334v11.477l-7.58-11.658
				c-0.059-0.094-0.166-0.152-0.277-0.152h-3.498c-0.184,0-0.332,0.15-0.332,0.334v19.146c0,0.184,0.148,0.334,0.332,0.334h3.646
				c0.184,0,0.332-0.15,0.332-0.334V9.003l7.57,11.621c0.061,0.094,0.168,0.152,0.279,0.152h3.505c0.184,0,0.334-0.15,0.334-0.334
				V1.296C169.219,1.112,169.068,0.962,168.885,0.962"/>
			<path fill="#001E5F" d="M189.055,0.962h-10.449c-0.188,0-0.336,0.15-0.336,0.334v19.146c0,0.184,0.148,0.334,0.336,0.334h10.449
				c0.184,0,0.336-0.15,0.336-0.334v-3.58c0-0.184-0.152-0.332-0.336-0.332h-6.5v-4.373h6.5c0.184,0,0.336-0.146,0.336-0.332V8.323
				c0-0.184-0.152-0.334-0.336-0.334h-6.5V5.194h6.5c0.184,0,0.336-0.148,0.336-0.332V1.296
				C189.391,1.112,189.238,0.962,189.055,0.962"/>
			<path fill="#001E5F" d="M207.562,12.612h-4.148l2.082-5.324L207.562,12.612z M214.996,20.321l-7.363-19.145
				c-0.051-0.131-0.172-0.215-0.312-0.215h-3.695c-0.137,0-0.262,0.084-0.309,0.215l-7.387,19.145
				c-0.039,0.104-0.023,0.219,0.039,0.309c0.059,0.092,0.164,0.146,0.273,0.146h3.785c0.141,0,0.262-0.084,0.312-0.213l1.473-3.73
				h7.359l1.414,3.727c0.051,0.131,0.172,0.217,0.312,0.217h3.785c0.113,0,0.215-0.055,0.277-0.146
				C215.023,20.54,215.039,20.425,214.996,20.321"/>
		</g>
	</g>
</g>
<g>
	<g>
		<path fill="#001E5F" d="M35.551,70.482c-19.3,0-35.001-15.702-35.001-35c0-19.299,15.702-35,35.001-35
			c19.298,0,34.999,15.702,34.999,35C70.55,54.78,54.85,70.482,35.551,70.482z M35.551,4.194c-17.253,0-31.289,14.036-31.289,31.288
			c0,17.251,14.036,31.287,31.289,31.287c17.25,0,31.285-14.035,31.285-31.287C66.836,18.23,52.802,4.194,35.551,4.194z
			 M22.415,52.873c-7.853-7.861-10.274-24.087-10.374-24.775c-0.083-0.579,0.11-1.164,0.524-1.577c0.414-0.414,1-0.611,1.578-0.525
			c0.284,0.041,6.495,0.957,13.102,3.455c2.901-6.424,6.636-11.451,6.807-11.68c0.35-0.469,0.901-0.745,1.487-0.745
			c0.584,0,1.136,0.276,1.486,0.745c0.171,0.228,3.905,5.252,6.811,11.673c6.601-2.494,12.806-3.41,13.087-3.45
			c0.58-0.086,1.166,0.11,1.579,0.524s0.609,0.999,0.524,1.579c-0.1,0.687-2.524,16.916-10.376,24.769
			c-5.231,5.234-9.464,6.331-13.103,6.332C31.903,59.199,27.644,58.102,22.415,52.873z M32.792,54.779
			c0.824,0.414,1.745,0.697,2.74,0.696c1.679-0.001,3.178-0.706,4.232-1.763c2.798-2.799,2.809-8.436-3.472-14.717
			c-0.239-0.239-0.492-0.476-0.76-0.712c-0.267,0.236-0.52,0.473-0.759,0.712c-3.083,3.083-4.878,6.263-5.189,9.199
			c-0.23,2.184,0.396,4.195,1.723,5.521c0.083,0.082,0.167,0.162,0.255,0.239C31.951,54.278,32.364,54.555,32.792,54.779z
			 M16.191,30.145c0.974,4.706,3.559,14.692,8.729,19.981c-0.635-2.008-1.041-4.476-1.041-7.503
			c-0.002-2.886,0.655-6.153,1.958-9.734C22.137,31.5,18.519,30.625,16.191,30.145z M45.245,32.881
			c1.307,3.583,1.969,6.854,1.97,9.742c0,2.875-0.375,5.352-1.026,7.45c5.15-5.306,7.718-15.241,8.688-19.931
			C52.553,30.622,48.941,31.495,45.245,32.881z M38.593,36.052c0.11,0.106,0.22,0.212,0.325,0.318
			c1.979,1.978,3.519,4.031,4.583,6.094c-0.024-2.376-0.591-5.107-1.683-8.143C40.649,34.872,39.572,35.451,38.593,36.052z
			 M29.265,34.331c-1.08,3.007-1.64,5.716-1.67,8.077c1.063-2.044,2.592-4.079,4.553-6.038c0.105-0.106,0.213-0.212,0.324-0.317
			C31.498,35.455,30.427,34.88,29.265,34.331z M30.67,30.889c1.809,0.844,3.435,1.754,4.862,2.72
			c1.431-0.969,3.062-1.881,4.877-2.728c-1.635-3.587-3.569-6.751-4.87-8.731C34.236,24.131,32.302,27.299,30.67,30.889z"/>
	</g>
</g>
</svg>
