<?xml version="1.0" encoding="utf-8"?>
<!-- Generator: Adobe Illustrator 16.0.0, SVG Export Plug-In . SVG Version: 6.00 Build 0)  -->
<!DOCTYPE svg PUBLIC "-//W3C//DTD SVG 1.1//EN" "http://www.w3.org/Graphics/SVG/1.1/DTD/svg11.dtd">
<svg version="1.1" id="Layer_1" xmlns="http://www.w3.org/2000/svg" xmlns:xlink="http://www.w3.org/1999/xlink" x="0px" y="0px"
	 width="105.834px" height="22.833px" viewBox="0 0 105.834 22.833" enable-background="new 0 0 105.834 22.833"
	 xml:space="preserve">
<g>
	<path fill="#001E5F" d="M21.672,11.012H12.04c-0.184,0-0.334,0.148-0.334,0.334v3.422c0,0.184,0.15,0.334,0.334,0.334h5
		c-0.463,0.826-1.041,1.451-1.721,1.867c-0.807,0.494-1.82,0.746-3.012,0.746c-1.838,0-3.404-0.615-4.654-1.832
		c-1.248-1.213-1.879-2.713-1.879-4.459c0-1.688,0.607-3.141,1.807-4.318c1.203-1.182,2.719-1.781,4.504-1.781
		c2.057,0,3.887,0.832,5.439,2.475c0.061,0.064,0.146,0.102,0.236,0.104c0.09-0.002,0.176-0.033,0.238-0.096l2.566-2.537
		c0.129-0.129,0.133-0.332,0.012-0.465c-1.199-1.295-2.447-2.225-3.707-2.762c-1.484-0.631-3.1-0.949-4.805-0.949
		c-3.27,0-5.963,1.162-8.006,3.455c-1.723,1.928-2.598,4.229-2.598,6.834c0,1.898,0.475,3.691,1.404,5.332
		c0.934,1.645,2.221,2.928,3.826,3.818c1.6,0.887,3.441,1.336,5.479,1.336c1.906,0,3.596-0.414,5.02-1.229
		c1.426-0.816,2.602-2.014,3.496-3.561c0.891-1.545,1.346-3.203,1.344-4.939l-0.025-0.809
		C21.999,11.153,21.852,11.012,21.672,11.012"/>
	<path fill="#001E5F" d="M33.733,1.575h-3.619c-0.184,0-0.334,0.15-0.334,0.334v19.146c0,0.184,0.15,0.334,0.334,0.334h3.619
		c0.184,0,0.334-0.15,0.334-0.334V1.909C34.067,1.725,33.917,1.575,33.733,1.575"/>
	<path fill="#001E5F" d="M58.51,1.575h-3.644c-0.184,0-0.334,0.15-0.334,0.334v11.477l-7.58-11.658
		c-0.059-0.094-0.166-0.152-0.277-0.152h-3.498c-0.184,0-0.332,0.15-0.332,0.334v19.146c0,0.184,0.148,0.334,0.332,0.334h3.646
		c0.184,0,0.332-0.15,0.332-0.334V9.616l7.57,11.621c0.061,0.094,0.168,0.152,0.279,0.152h3.505c0.184,0,0.334-0.15,0.334-0.334
		V1.909C58.844,1.725,58.693,1.575,58.51,1.575"/>
	<path fill="#001E5F" d="M78.68,1.575H68.23c-0.188,0-0.336,0.15-0.336,0.334v19.146c0,0.184,0.148,0.334,0.336,0.334H78.68
		c0.184,0,0.336-0.15,0.336-0.334v-3.58c0-0.184-0.152-0.332-0.336-0.332h-6.5V12.77h6.5c0.184,0,0.336-0.146,0.336-0.332V8.936
		c0-0.184-0.152-0.334-0.336-0.334h-6.5V5.807h6.5c0.184,0,0.336-0.148,0.336-0.332V1.909C79.016,1.725,78.863,1.575,78.68,1.575"/>
	<path fill="#001E5F" d="M97.188,13.225h-4.148l2.082-5.324L97.188,13.225z M104.621,20.934L97.258,1.79
		c-0.051-0.131-0.172-0.215-0.312-0.215H93.25c-0.137,0-0.262,0.084-0.309,0.215l-7.387,19.145
		c-0.039,0.104-0.023,0.219,0.039,0.309c0.059,0.092,0.164,0.146,0.273,0.146h3.785c0.141,0,0.262-0.084,0.312-0.213l1.473-3.73
		h7.359l1.414,3.727c0.051,0.131,0.172,0.217,0.312,0.217h3.785c0.113,0,0.215-0.055,0.277-0.146
		C104.648,21.153,104.664,21.038,104.621,20.934"/>
</g>
</svg>
