<?xml version="1.0" encoding="utf-8"?>
<!-- Generator: Adobe Illustrator 16.0.0, SVG Export Plug-In . SVG Version: 6.00 Build 0)  -->
<!DOCTYPE svg PUBLIC "-//W3C//DTD SVG 1.1//EN" "http://www.w3.org/Graphics/SVG/1.1/DTD/svg11.dtd">
<svg version="1.1" id="Layer_1" xmlns="http://www.w3.org/2000/svg" xmlns:xlink="http://www.w3.org/1999/xlink" x="0px" y="0px"
	 width="216.26px" height="71.764px" viewBox="0 0 216.26 71.764" enable-background="new 0 0 216.26 71.764" xml:space="preserve">
<g>
	<path fill="#001E5F" d="M132.047,35.012h-9.633c-0.184,0-0.334,0.148-0.334,0.334v3.422c0,0.184,0.15,0.334,0.334,0.334h5
		c-0.463,0.826-1.041,1.451-1.721,1.867c-0.807,0.494-1.82,0.746-3.012,0.746c-1.838,0-3.404-0.615-4.654-1.832
		c-1.248-1.213-1.879-2.713-1.879-4.459c0-1.688,0.607-3.141,1.807-4.318c1.203-1.182,2.719-1.781,4.504-1.781
		c2.057,0,3.887,0.832,5.439,2.475c0.061,0.064,0.146,0.102,0.236,0.104c0.09-0.002,0.176-0.033,0.238-0.096l2.566-2.537
		c0.129-0.129,0.133-0.332,0.012-0.465c-1.199-1.295-2.447-2.225-3.707-2.762c-1.484-0.631-3.1-0.949-4.805-0.949
		c-3.27,0-5.963,1.162-8.006,3.455c-1.723,1.928-2.598,4.229-2.598,6.834c0,1.898,0.475,3.691,1.404,5.332
		c0.934,1.645,2.221,2.928,3.826,3.818c1.6,0.887,3.441,1.336,5.479,1.336c1.906,0,3.596-0.414,5.02-1.229
		c1.426-0.816,2.602-2.014,3.496-3.561c0.891-1.545,1.346-3.203,1.344-4.939l-0.025-0.809
		C132.374,35.152,132.227,35.012,132.047,35.012"/>
	<path fill="#001E5F" d="M144.108,25.574h-3.619c-0.184,0-0.334,0.15-0.334,0.334v19.146c0,0.184,0.15,0.334,0.334,0.334h3.619
		c0.184,0,0.334-0.15,0.334-0.334V25.908C144.442,25.725,144.292,25.574,144.108,25.574"/>
	<path fill="#001E5F" d="M168.885,25.574h-3.644c-0.184,0-0.334,0.15-0.334,0.334v11.477l-7.58-11.658
		c-0.059-0.094-0.166-0.152-0.277-0.152h-3.498c-0.184,0-0.332,0.15-0.332,0.334v19.146c0,0.184,0.148,0.334,0.332,0.334h3.646
		c0.184,0,0.332-0.15,0.332-0.334V33.615l7.57,11.621c0.061,0.094,0.168,0.152,0.279,0.152h3.505c0.184,0,0.334-0.15,0.334-0.334
		V25.908C169.219,25.725,169.068,25.574,168.885,25.574"/>
	<path fill="#001E5F" d="M189.055,25.574h-10.449c-0.188,0-0.336,0.15-0.336,0.334v19.146c0,0.184,0.148,0.334,0.336,0.334h10.449
		c0.184,0,0.336-0.15,0.336-0.334v-3.58c0-0.184-0.152-0.332-0.336-0.332h-6.5V36.77h6.5c0.184,0,0.336-0.146,0.336-0.332v-3.502
		c0-0.184-0.152-0.334-0.336-0.334h-6.5v-2.795h6.5c0.184,0,0.336-0.148,0.336-0.332v-3.566
		C189.391,25.725,189.238,25.574,189.055,25.574"/>
	<path fill="#001E5F" d="M207.562,37.225h-4.148l2.082-5.324L207.562,37.225z M214.996,44.934l-7.363-19.145
		c-0.051-0.131-0.172-0.215-0.312-0.215h-3.695c-0.137,0-0.262,0.084-0.309,0.215l-7.387,19.145
		c-0.039,0.104-0.023,0.219,0.039,0.309c0.059,0.092,0.164,0.146,0.273,0.146h3.785c0.141,0,0.262-0.084,0.312-0.213l1.473-3.73
		h7.359l1.414,3.727c0.051,0.131,0.172,0.217,0.312,0.217h3.785c0.113,0,0.215-0.055,0.277-0.146
		C215.023,45.152,215.039,45.037,214.996,44.934"/>
</g>
<g>
	<g>
		<path fill="#001E5F" d="M35.551,70.482c-19.3,0-35.001-15.702-35.001-35c0-19.299,15.702-35,35.001-35
			c19.298,0,34.999,15.702,34.999,35C70.55,54.78,54.85,70.482,35.551,70.482z M35.551,4.194c-17.253,0-31.289,14.036-31.289,31.288
			c0,17.251,14.036,31.287,31.289,31.287c17.25,0,31.285-14.035,31.285-31.287C66.836,18.23,52.802,4.194,35.551,4.194z
			 M22.415,52.873c-7.853-7.861-10.274-24.087-10.374-24.775c-0.083-0.579,0.11-1.164,0.524-1.577c0.414-0.414,1-0.611,1.578-0.525
			c0.284,0.041,6.495,0.957,13.102,3.455c2.901-6.424,6.636-11.451,6.807-11.68c0.35-0.469,0.901-0.745,1.487-0.745
			c0.584,0,1.136,0.276,1.486,0.745c0.171,0.228,3.905,5.252,6.811,11.673c6.601-2.494,12.806-3.41,13.087-3.45
			c0.58-0.086,1.166,0.11,1.579,0.524s0.609,0.999,0.524,1.579c-0.1,0.687-2.524,16.916-10.376,24.769
			c-5.231,5.234-9.464,6.331-13.103,6.332C31.903,59.199,27.644,58.102,22.415,52.873z M32.792,54.779
			c0.824,0.414,1.745,0.697,2.74,0.696c1.679-0.001,3.178-0.706,4.232-1.763c2.798-2.799,2.809-8.436-3.472-14.717
			c-0.239-0.239-0.492-0.476-0.76-0.712c-0.267,0.236-0.52,0.473-0.759,0.712c-3.083,3.083-4.878,6.263-5.189,9.199
			c-0.23,2.184,0.396,4.195,1.723,5.521c0.083,0.082,0.167,0.162,0.255,0.239C31.951,54.278,32.364,54.555,32.792,54.779z
			 M16.191,30.145c0.974,4.706,3.559,14.692,8.729,19.981c-0.635-2.008-1.041-4.476-1.041-7.503
			c-0.002-2.886,0.655-6.153,1.958-9.734C22.137,31.5,18.519,30.625,16.191,30.145z M45.245,32.881
			c1.307,3.583,1.969,6.854,1.97,9.742c0,2.875-0.375,5.352-1.026,7.45c5.15-5.306,7.718-15.241,8.688-19.931
			C52.553,30.622,48.941,31.495,45.245,32.881z M38.593,36.052c0.11,0.106,0.22,0.212,0.325,0.318
			c1.979,1.978,3.519,4.031,4.583,6.094c-0.024-2.376-0.591-5.107-1.683-8.143C40.649,34.872,39.572,35.451,38.593,36.052z
			 M29.265,34.331c-1.08,3.007-1.64,5.716-1.67,8.077c1.063-2.044,2.592-4.079,4.553-6.038c0.105-0.106,0.213-0.212,0.324-0.317
			C31.498,35.455,30.427,34.88,29.265,34.331z M30.67,30.889c1.809,0.844,3.435,1.754,4.862,2.72
			c1.431-0.969,3.062-1.881,4.877-2.728c-1.635-3.587-3.569-6.751-4.87-8.731C34.236,24.131,32.302,27.299,30.67,30.889z"/>
	</g>
</g>
</svg>
