<?xml version="1.0" encoding="utf-8"?>
<!-- Generator: Adobe Illustrator 16.0.0, SVG Export Plug-In . SVG Version: 6.00 Build 0)  -->
<!DOCTYPE svg PUBLIC "-//W3C//DTD SVG 1.1//EN" "http://www.w3.org/Graphics/SVG/1.1/DTD/svg11.dtd">
<svg version="1.1" id="Layer_1" xmlns="http://www.w3.org/2000/svg" xmlns:xlink="http://www.w3.org/1999/xlink" x="0px" y="0px"
	 width="1000px" height="1000px" viewBox="0 0 1000 1000" enable-background="new 0 0 1000 1000" xml:space="preserve">
<g>
	<g>
		<path d="M138.611,605.478l9.024,19.998L95.639,648.94l74.956,27.413l11.12,24.639l-66.175-25.021l-46.616,79.771l-11.262-24.959
			l37.661-62.058L71.8,659.699l-38.399,17.327l-9.024-19.999L138.611,605.478z"/>
		<path d="M258.226,776.827c7.122,6.074,12.369,12.858,15.748,20.352c3.374,7.493,5.083,15.18,5.128,23.062
			c0.044,7.881-1.471,15.743-4.541,23.581c-3.074,7.84-7.495,15.143-13.265,21.908c-5.848,6.856-12.401,12.417-19.654,16.687
			c-7.259,4.271-14.781,7.003-22.57,8.203c-7.792,1.197-15.635,0.702-23.526-1.495c-7.893-2.198-15.402-6.332-22.524-12.406
			c-7.124-6.077-12.39-12.84-15.803-20.286c-3.416-7.447-5.143-15.114-5.186-22.995c-0.046-7.884,1.467-15.743,4.542-23.581
			c3.07-7.84,7.53-15.185,13.378-22.041c5.771-6.766,12.284-12.283,19.542-16.554c7.255-4.27,14.778-7.006,22.569-8.203
			c7.79-1.2,15.65-0.725,23.583,1.428C243.576,766.638,251.102,770.751,258.226,776.827z M246.608,790.448
			c-5.075-4.329-10.336-7.045-15.774-8.149c-5.444-1.103-10.784-0.928-16.021,0.524c-5.24,1.453-10.277,3.887-15.109,7.301
			c-4.836,3.412-9.187,7.39-13.06,11.93c-3.874,4.541-7.118,9.467-9.723,14.778c-2.609,5.312-4.219,10.669-4.826,16.071
			c-0.61,5.401,0.06,10.703,2.009,15.901c1.945,5.2,5.459,9.964,10.534,14.292c5.075,4.328,10.332,7.046,15.774,8.148
			c5.44,1.104,10.78,0.929,16.021-0.524c5.235-1.452,10.272-3.887,15.108-7.299c4.833-3.412,9.188-7.391,13.062-11.931
			c3.872-4.541,7.113-9.466,9.721-14.778c2.606-5.312,4.216-10.669,4.827-16.07c0.606-5.402-0.064-10.703-2.009-15.903
			C255.193,799.541,251.682,794.777,246.608,790.448z"/>
		<path d="M352.972,844.9l30.157,6.702l12.468,103.284l0.342,0.076l54.186-88.471l29.814,6.625L452.751,995.46l-20.391-4.532
			l20.982-94.412L453,896.438l-54.91,86.874l-17.647-3.922l-12.945-101.953l-0.342-0.077l-20.983,94.413l-20.39-4.531L352.972,844.9
			z"/>
		<path d="M545.117,867.486l87.686-21.238l4.465,18.425l-66.362,16.073l7.726,31.901l61.415-14.876l4.215,17.401l-61.414,14.875
			l8.634,35.655l67.557-16.363l4.463,18.425l-88.882,21.527L545.117,867.486z"/>
		<path d="M687.491,819.911l47.378-36.58c10.927-8.437,20.948-12.403,30.062-11.899c9.111,0.504,16.922,4.972,23.429,13.399
			c3.647,4.724,5.975,9.175,6.981,13.35c1.006,4.177,1.315,7.93,0.928,11.257c-0.386,3.33-1.16,6.107-2.322,8.335
			c-1.163,2.229-2.053,3.804-2.672,4.725l0.214,0.278c1.625-0.957,3.58-1.727,5.865-2.312c2.287-0.58,4.797-0.633,7.528-0.158
			c2.733,0.479,5.591,1.638,8.563,3.479c2.976,1.843,5.964,4.709,8.968,8.599c4.506,5.836,9.038,10.801,13.603,14.89
			c4.562,4.093,8.557,6.442,11.983,7.048l-18.618,14.374c-2.942-1.128-5.53-2.899-7.763-5.316c-2.234-2.412-4.28-4.824-6.14-7.234
			c-3.504-4.537-6.804-8.237-9.899-11.097c-3.092-2.857-6.224-4.804-9.385-5.837c-3.162-1.03-6.411-1.073-9.745-0.128
			c-3.334,0.95-6.992,2.961-10.976,6.035l-25.563,19.737l31.537,40.847l-17.366,13.409L687.491,819.911z M739.721,851.657
			l28.482-21.991c5.557-4.29,8.752-8.864,9.585-13.722c0.832-4.854-0.787-9.924-4.864-15.203c-2.431-3.148-4.88-5.36-7.343-6.639
			c-2.464-1.275-4.936-1.844-7.414-1.705c-2.479,0.141-4.903,0.83-7.274,2.067c-2.367,1.241-4.666,2.717-6.889,4.433L715.8,820.674
			L739.721,851.657z"/>
		<path d="M881.038,653.133c-3.653-0.825-7.207-1.209-10.663-1.145c-3.455,0.065-6.76,0.733-9.915,2.003
			c-3.153,1.272-6.069,3.162-8.741,5.668c-2.672,2.507-5.053,5.789-7.142,9.847c-3.052,5.931-4.493,11.672-4.323,17.22
			c0.173,5.552,1.564,10.71,4.177,15.476c2.613,4.77,6.136,9.114,10.563,13.038c4.428,3.926,9.296,7.252,14.601,9.983
			c5.308,2.731,10.845,4.762,16.611,6.082c5.769,1.325,11.352,1.666,16.75,1.021c5.397-0.643,10.405-2.508,15.021-5.595
			c4.615-3.084,8.448-7.595,11.502-13.525c2.25-4.369,3.476-8.604,3.681-12.713c0.206-4.105-0.402-8.037-1.823-11.798
			c-1.422-3.758-3.553-7.224-6.395-10.397c-2.841-3.171-6.185-6.012-10.027-8.518l9.801-19.041
			c6.444,3.845,11.794,8.409,16.051,13.691c4.258,5.284,7.316,11.039,9.178,17.26c1.865,6.225,2.442,12.707,1.735,19.451
			c-0.708,6.742-2.802,13.496-6.282,20.259c-4.284,8.325-9.662,14.999-16.131,20.025c-6.47,5.029-13.537,8.465-21.2,10.312
			c-7.664,1.847-15.66,2.173-23.993,0.975c-8.333-1.196-16.505-3.856-24.518-7.981c-7.906-4.068-14.768-9.146-20.586-15.234
			c-5.817-6.085-10.201-12.783-13.149-20.094c-2.951-7.309-4.286-15.069-4.007-23.284c0.278-8.214,2.561-16.481,6.847-24.807
			c3.213-6.241,7.096-11.678,11.652-16.31c4.554-4.631,9.556-8.209,15.001-10.737c5.447-2.526,11.181-3.885,17.202-4.076
			c6.02-0.189,12.21,0.955,18.565,3.437L881.038,653.133z"/>
	</g>
	<g>
		<path d="M5.468,537.495l-0.047-90.222l18.956-0.01l0.037,68.279l32.824-0.018l-0.034-63.189l17.904-0.01l0.034,63.19l36.685-0.02
			l-0.037-69.51l18.958-0.009l0.048,91.45L5.468,537.495z"/>
		<path d="M32.265,327.782l9.344-19.852l51.615,24.294L65.38,257.426l11.511-24.457l23.958,66.566l90.931-16.371l-11.661,24.775
			l-71.647,11.673l8.416,23.75l38.115,17.939l-9.343,19.852L32.265,327.782z"/>
		<path d="M193.419,104.205c7.381-5.756,15.081-9.535,23.101-11.337c8.018-1.801,15.891-1.931,23.623-0.393
			c7.729,1.541,15.126,4.603,22.188,9.186c7.062,4.586,13.329,10.383,18.795,17.395c5.544,7.106,9.675,14.643,12.4,22.606
			c2.726,7.968,3.891,15.886,3.502,23.758c-0.392,7.873-2.454,15.457-6.189,22.746c-3.74,7.292-9.297,13.817-16.679,19.573
			c-7.383,5.758-15.065,9.558-23.046,11.406c-7.983,1.85-15.839,2.002-23.569,0.462c-7.731-1.54-15.126-4.6-22.188-9.186
			c-7.062-4.583-13.362-10.427-18.904-17.534c-5.467-7.011-9.566-14.5-12.291-22.468c-2.727-7.964-3.894-15.883-3.502-23.757
			c0.389-7.871,2.434-15.476,6.136-22.815C180.495,116.51,186.036,109.963,193.419,104.205z M204.429,118.324
			c-5.26,4.102-8.978,8.709-11.151,13.816c-2.173,5.111-3.075,10.376-2.704,15.798c0.37,5.425,1.744,10.848,4.115,16.267
			c2.372,5.423,5.395,10.484,9.064,15.191c3.669,4.706,7.844,8.873,12.524,12.492c4.679,3.624,9.604,6.277,14.774,7.956
			c5.169,1.683,10.496,2.092,15.981,1.226c5.484-0.861,10.856-3.347,16.116-7.449c5.259-4.102,8.978-8.704,11.152-13.815
			c2.173-5.107,3.075-10.374,2.704-15.798c-0.371-5.422-1.743-10.844-4.116-16.268c-2.372-5.419-5.394-10.484-9.063-15.191
			c-3.67-4.706-7.846-8.868-12.525-12.492c-4.68-3.62-9.604-6.272-14.774-7.955c-5.17-1.68-10.497-2.088-15.981-1.227
			C215.061,111.74,209.688,114.222,204.429,118.324z"/>
		<path d="M357.772,20.067l22.782-4.229l73.109,80.334l0.345-0.064L437.16,5.332l20.537-3.812l22.872,123.222l-22.781,4.229
			l-72.905-80.194l-0.519,0.096l16.818,90.604l-20.536,3.812L357.772,20.067z"/>
		<path d="M641.284,20.603c8.962,2.703,16.492,6.807,22.596,12.314c6.101,5.505,10.753,11.859,13.96,19.06
			c3.207,7.2,4.977,15.007,5.313,23.419c0.334,8.413-0.78,16.877-3.347,25.391c-2.603,8.628-6.369,16.353-11.299,23.177
			c-4.93,6.825-10.721,12.35-17.373,16.578c-6.653,4.227-14.035,6.922-22.145,8.081c-8.111,1.157-16.648,0.389-25.611-2.314
			c-8.965-2.703-16.503-6.782-22.62-12.23c-6.12-5.449-10.782-11.776-13.986-18.976c-3.208-7.201-4.98-15.006-5.312-23.419
			c-0.338-8.412,0.797-16.931,3.397-25.558c2.567-8.514,6.315-16.184,11.247-23.01c4.927-6.824,10.72-12.351,17.374-16.578
			c6.651-4.227,14.041-6.95,22.17-8.165C623.774,17.157,632.319,17.9,641.284,20.603z M636.115,37.745
			c-6.387-1.925-12.294-2.301-17.718-1.126c-5.429,1.176-10.249,3.482-14.461,6.915c-4.216,3.435-7.85,7.688-10.904,12.753
			c-3.058,5.068-5.445,10.459-7.167,16.172c-1.725,5.713-2.715,11.528-2.967,17.439c-0.257,5.913,0.421,11.465,2.035,16.655
			c1.612,5.193,4.353,9.777,8.227,13.756c3.871,3.98,9.002,6.93,15.388,8.857c6.387,1.925,12.291,2.302,17.72,1.125
			c5.425-1.174,10.244-3.479,14.461-6.915c4.211-3.433,7.846-7.686,10.903-12.753c3.054-5.066,5.444-10.458,7.167-16.172
			c1.725-5.713,2.711-11.526,2.967-17.438c0.253-5.911-0.424-11.463-2.035-16.656c-1.615-5.19-4.356-9.776-8.228-13.755
			C647.63,42.623,642.502,39.67,636.115,37.745z"/>
		<path d="M809.105,107.702l21.348,22.33l-47.027,92.798l0.242,0.254l94.212-43.444l21.104,22.075l-90.588,86.606l-14.435-15.098
			l69.908-66.835l-0.242-0.253l-93.925,41.713l-12.494-13.068l45.893-91.956l-0.242-0.254l-69.909,66.834l-14.435-15.098
			L809.105,107.702z"/>
		<path d="M956.126,313.51l7.631,20.572l-117.503,43.584l-7.631-20.571L956.126,313.51z"/>
		<path d="M990.956,452.301l-0.189,21.94l-57.044-0.492l56.563,56.308l-0.234,27.029l-49.592-50.454l-75.761,52.884l0.237-27.381
			l60.206-40.556l-17.573-18.056l-42.125-0.364l0.188-21.94L990.956,452.301z"/>
	</g>
</g>
</svg>
